<svg width="22" height="22" viewBox="0 0 22 22" fill="none" xmlns="http://www.w3.org/2000/svg">
<rect width="22" height="22" rx="2" fill="#E8EAED"/>
<path d="M17 10C17 13.7447 12.8457 17.6447 11.4507 18.8492C11.3208 18.947 11.1626 18.9998 11 18.9998C10.8374 18.9998 10.6792 18.947 10.5492 18.8492C9.15425 17.6447 5 13.7447 5 10C5 8.4087 5.63214 6.88258 6.75736 5.75736C7.88258 4.63214 9.4087 4 11 4C12.5913 4 14.1174 4.63214 15.2426 5.75736C16.3679 6.88258 17 8.4087 17 10Z" stroke="#333333" stroke-linecap="round" stroke-linejoin="round"/>
<path d="M11 12.25C12.2426 12.25 13.25 11.2426 13.25 10C13.25 8.75736 12.2426 7.75 11 7.75C9.75736 7.75 8.75 8.75736 8.75 10C8.75 11.2426 9.75736 12.25 11 12.25Z" stroke="#333333" stroke-linecap="round" stroke-linejoin="round"/>
</svg>
