<svg width="270" height="57" viewBox="0 0 270 57" fill="none" xmlns="http://www.w3.org/2000/svg">
<path d="M1.97714 46.8482H4.10286C4.72 46.8558 5.16952 46.7301 5.45143 46.471C5.74095 46.212 5.88571 45.8387 5.88571 45.351C5.88571 44.8634 5.74095 44.4939 5.45143 44.2425C5.16952 43.9834 4.72 43.8539 4.10286 43.8539H1.97714V46.8482ZM0.891429 42.9396H4.46857C5.29143 42.9396 5.91238 43.1529 6.33143 43.5796C6.7581 43.9987 6.97143 44.5891 6.97143 45.351C6.97143 46.1129 6.7581 46.7072 6.33143 47.1339C5.91238 47.5606 5.29143 47.7701 4.46857 47.7625H1.97714V51.0996H0.891429V42.9396ZM7.87929 45.191H8.79357V46.4368H8.81643C9.05262 45.9568 9.34214 45.6025 9.685 45.3739C10.0279 45.1453 10.4621 45.0387 10.9879 45.0539V46.0825C10.5993 46.0825 10.2679 46.1358 9.99357 46.2425C9.71929 46.3491 9.49833 46.5053 9.33071 46.711C9.16309 46.9168 9.04119 47.1682 8.965 47.4653C8.88881 47.7548 8.85071 48.0901 8.85071 48.471V51.0996H7.87929V45.191ZM15.3928 47.5796C15.3775 47.351 15.3242 47.1339 15.2328 46.9282C15.149 46.7225 15.0309 46.5472 14.8785 46.4025C14.7337 46.2501 14.5585 46.132 14.3528 46.0482C14.1547 45.9568 13.9337 45.911 13.6899 45.911C13.4385 45.911 13.2099 45.9568 13.0042 46.0482C12.8061 46.132 12.6347 46.2501 12.4899 46.4025C12.3451 46.5548 12.2309 46.7339 12.1471 46.9396C12.0632 47.1377 12.0137 47.351 11.9985 47.5796H15.3928ZM16.3299 49.2253C16.2004 49.8882 15.9147 50.3872 15.4728 50.7225C15.0309 51.0577 14.4747 51.2253 13.8042 51.2253C13.3318 51.2253 12.9204 51.1491 12.5699 50.9968C12.2271 50.8444 11.9375 50.631 11.7013 50.3568C11.4651 50.0825 11.2861 49.7548 11.1642 49.3739C11.0499 48.9929 10.9851 48.5777 10.9699 48.1282C10.9699 47.6787 11.0385 47.2672 11.1756 46.8939C11.3128 46.5206 11.5032 46.1968 11.7471 45.9225C11.9985 45.6482 12.2918 45.4348 12.6271 45.2825C12.9699 45.1301 13.3432 45.0539 13.7471 45.0539C14.2728 45.0539 14.7071 45.1644 15.0499 45.3853C15.4004 45.5987 15.6785 45.8729 15.8842 46.2082C16.0975 46.5434 16.2423 46.9091 16.3185 47.3053C16.4023 47.7015 16.4366 48.0787 16.4213 48.4368H11.9985C11.9909 48.6958 12.0213 48.9434 12.0899 49.1796C12.1585 49.4082 12.269 49.6139 12.4213 49.7968C12.5737 49.972 12.768 50.1129 13.0042 50.2196C13.2404 50.3263 13.5185 50.3796 13.8385 50.3796C14.2499 50.3796 14.5851 50.2844 14.8442 50.0939C15.1109 49.9034 15.2861 49.6139 15.3699 49.2253H16.3299ZM17.794 49.2368C17.8016 49.4501 17.8512 49.6329 17.9426 49.7853C18.034 49.9301 18.1521 50.0482 18.2969 50.1396C18.4493 50.2234 18.6169 50.2844 18.7997 50.3225C18.9902 50.3606 19.1845 50.3796 19.3826 50.3796C19.535 50.3796 19.695 50.3682 19.8626 50.3453C20.0302 50.3225 20.1826 50.2806 20.3197 50.2196C20.4645 50.1587 20.5826 50.071 20.674 49.9568C20.7654 49.8348 20.8112 49.6825 20.8112 49.4996C20.8112 49.2482 20.7159 49.0577 20.5254 48.9282C20.335 48.7987 20.095 48.6958 19.8054 48.6196C19.5235 48.5358 19.215 48.4634 18.8797 48.4025C18.5445 48.3339 18.2321 48.2425 17.9426 48.1282C17.6607 48.0063 17.4245 47.8387 17.234 47.6253C17.0435 47.412 16.9483 47.1148 16.9483 46.7339C16.9483 46.4368 17.0131 46.1815 17.1426 45.9682C17.2797 45.7548 17.4512 45.5834 17.6569 45.4539C17.8702 45.3168 18.1064 45.2177 18.3654 45.1568C18.6321 45.0882 18.895 45.0539 19.154 45.0539C19.4893 45.0539 19.7978 45.0844 20.0797 45.1453C20.3616 45.1987 20.6093 45.2977 20.8226 45.4425C21.0435 45.5796 21.2188 45.7701 21.3483 46.0139C21.4778 46.2501 21.554 46.5472 21.5769 46.9053H20.6054C20.5902 46.7148 20.5407 46.5587 20.4569 46.4368C20.3731 46.3072 20.2664 46.2044 20.1369 46.1282C20.0073 46.052 19.8626 45.9987 19.7026 45.9682C19.5502 45.9301 19.394 45.911 19.234 45.911C19.0893 45.911 18.9407 45.9225 18.7883 45.9453C18.6435 45.9682 18.5102 46.0101 18.3883 46.071C18.2664 46.1244 18.1673 46.2006 18.0912 46.2996C18.015 46.391 17.9769 46.5129 17.9769 46.6653C17.9769 46.8329 18.034 46.9739 18.1483 47.0882C18.2702 47.1948 18.4226 47.2863 18.6054 47.3625C18.7883 47.431 18.994 47.492 19.2226 47.5453C19.4512 47.591 19.6797 47.6406 19.9083 47.6939C20.1521 47.7472 20.3883 47.812 20.6169 47.8882C20.8531 47.9644 21.0588 48.0672 21.234 48.1968C21.4169 48.3187 21.5616 48.4748 21.6683 48.6653C21.7826 48.8558 21.8397 49.092 21.8397 49.3739C21.8397 49.732 21.7635 50.0291 21.6112 50.2653C21.4664 50.5015 21.2721 50.692 21.0283 50.8368C20.7921 50.9815 20.5216 51.0806 20.2169 51.1339C19.9197 51.1948 19.6226 51.2253 19.3254 51.2253C18.9978 51.2253 18.6854 51.191 18.3883 51.1225C18.0912 51.0539 17.8283 50.9434 17.5997 50.791C17.3712 50.631 17.1883 50.4253 17.0512 50.1739C16.914 49.9148 16.8378 49.6025 16.8226 49.2368H17.794ZM26.7883 47.5796C26.7731 47.351 26.7197 47.1339 26.6283 46.9282C26.5445 46.7225 26.4264 46.5472 26.274 46.4025C26.1293 46.2501 25.954 46.132 25.7483 46.0482C25.5502 45.9568 25.3293 45.911 25.0854 45.911C24.834 45.911 24.6054 45.9568 24.3997 46.0482C24.2016 46.132 24.0302 46.2501 23.8854 46.4025C23.7407 46.5548 23.6264 46.7339 23.5426 46.9396C23.4588 47.1377 23.4093 47.351 23.394 47.5796H26.7883ZM27.7254 49.2253C27.5959 49.8882 27.3102 50.3872 26.8683 50.7225C26.4264 51.0577 25.8702 51.2253 25.1997 51.2253C24.7273 51.2253 24.3159 51.1491 23.9654 50.9968C23.6226 50.8444 23.3331 50.631 23.0969 50.3568C22.8607 50.0825 22.6816 49.7548 22.5597 49.3739C22.4454 48.9929 22.3807 48.5777 22.3654 48.1282C22.3654 47.6787 22.434 47.2672 22.5712 46.8939C22.7083 46.5206 22.8988 46.1968 23.1426 45.9225C23.394 45.6482 23.6873 45.4348 24.0226 45.2825C24.3654 45.1301 24.7388 45.0539 25.1426 45.0539C25.6683 45.0539 26.1026 45.1644 26.4454 45.3853C26.7959 45.5987 27.074 45.8729 27.2797 46.2082C27.4931 46.5434 27.6378 46.9091 27.714 47.3053C27.7978 47.7015 27.8321 48.0787 27.8169 48.4368H23.394C23.3864 48.6958 23.4169 48.9434 23.4854 49.1796C23.554 49.4082 23.6645 49.6139 23.8169 49.7968C23.9693 49.972 24.1635 50.1129 24.3997 50.2196C24.6359 50.3263 24.914 50.3796 25.234 50.3796C25.6454 50.3796 25.9807 50.2844 26.2397 50.0939C26.5064 49.9034 26.6816 49.6139 26.7654 49.2253H27.7254ZM28.5953 45.191H29.5096V46.1282H29.5324C29.9362 45.412 30.5762 45.0539 31.4524 45.0539C31.841 45.0539 32.1648 45.1072 32.4238 45.2139C32.6829 45.3206 32.8924 45.4691 33.0524 45.6596C33.2124 45.8501 33.3229 46.0787 33.3838 46.3453C33.4524 46.6044 33.4867 46.8939 33.4867 47.2139V51.0996H32.5153V47.0996C32.5153 46.7339 32.4086 46.4444 32.1953 46.231C31.9819 46.0177 31.6886 45.911 31.3153 45.911C31.0181 45.911 30.7591 45.9568 30.5381 46.0482C30.3248 46.1396 30.1457 46.2691 30.001 46.4368C29.8562 46.6044 29.7457 46.8025 29.6696 47.031C29.601 47.252 29.5667 47.4958 29.5667 47.7625V51.0996H28.5953V45.191ZM36.0657 45.191H37.2429V46.0482H36.0657V49.7168C36.0657 49.831 36.0733 49.9225 36.0886 49.991C36.1114 50.0596 36.1495 50.1129 36.2029 50.151C36.2562 50.1891 36.3286 50.2158 36.42 50.231C36.519 50.2387 36.6448 50.2425 36.7971 50.2425H37.2429V51.0996H36.5C36.2486 51.0996 36.0314 51.0844 35.8486 51.0539C35.6733 51.0158 35.5286 50.951 35.4143 50.8596C35.3076 50.7682 35.2276 50.6387 35.1743 50.471C35.121 50.3034 35.0943 50.0825 35.0943 49.8082V46.0482H34.0886V45.191H35.0943V43.4196H36.0657V45.191ZM42.1963 47.5796C42.1811 47.351 42.1278 47.1339 42.0363 46.9282C41.9525 46.7225 41.8344 46.5472 41.6821 46.4025C41.5373 46.2501 41.3621 46.132 41.1563 46.0482C40.9582 45.9568 40.7373 45.911 40.4935 45.911C40.2421 45.911 40.0135 45.9568 39.8078 46.0482C39.6097 46.132 39.4382 46.2501 39.2935 46.4025C39.1487 46.5548 39.0344 46.7339 38.9506 46.9396C38.8668 47.1377 38.8173 47.351 38.8021 47.5796H42.1963ZM43.1335 49.2253C43.004 49.8882 42.7182 50.3872 42.2763 50.7225C41.8344 51.0577 41.2782 51.2253 40.6078 51.2253C40.1354 51.2253 39.724 51.1491 39.3735 50.9968C39.0306 50.8444 38.7411 50.631 38.5049 50.3568C38.2687 50.0825 38.0897 49.7548 37.9678 49.3739C37.8535 48.9929 37.7887 48.5777 37.7735 48.1282C37.7735 47.6787 37.8421 47.2672 37.9792 46.8939C38.1163 46.5206 38.3068 46.1968 38.5506 45.9225C38.8021 45.6482 39.0954 45.4348 39.4306 45.2825C39.7735 45.1301 40.1468 45.0539 40.5506 45.0539C41.0763 45.0539 41.5106 45.1644 41.8535 45.3853C42.204 45.5987 42.4821 45.8729 42.6878 46.2082C42.9011 46.5434 43.0459 46.9091 43.1221 47.3053C43.2059 47.7015 43.2401 48.0787 43.2249 48.4368H38.8021C38.7944 48.6958 38.8249 48.9434 38.8935 49.1796C38.9621 49.4082 39.0725 49.6139 39.2249 49.7968C39.3773 49.972 39.5716 50.1129 39.8078 50.2196C40.044 50.3263 40.3221 50.3796 40.6421 50.3796C41.0535 50.3796 41.3887 50.2844 41.6478 50.0939C41.9144 49.9034 42.0897 49.6139 42.1735 49.2253H43.1335ZM44.7119 48.1968C44.7119 48.471 44.7462 48.7415 44.8147 49.0082C44.8909 49.2672 45.0014 49.4996 45.1462 49.7053C45.2985 49.911 45.489 50.0748 45.7176 50.1968C45.9538 50.3187 46.2281 50.3796 46.5404 50.3796C46.8681 50.3796 47.1462 50.3148 47.3747 50.1853C47.6033 50.0558 47.79 49.8882 47.9347 49.6825C48.0795 49.4691 48.1823 49.2291 48.2433 48.9625C48.3119 48.6958 48.3462 48.4253 48.3462 48.151C48.3462 47.8615 48.3119 47.5834 48.2433 47.3168C48.1747 47.0425 48.0643 46.8025 47.9119 46.5968C47.7671 46.391 47.5766 46.2272 47.3404 46.1053C47.1043 45.9758 46.8185 45.911 46.4833 45.911C46.1557 45.911 45.8776 45.9758 45.649 46.1053C45.4204 46.2348 45.2376 46.4063 45.1004 46.6196C44.9633 46.8329 44.8643 47.0768 44.8033 47.351C44.7423 47.6253 44.7119 47.9072 44.7119 48.1968ZM49.2833 51.0996H48.3119V50.2996H48.289C48.129 50.6272 47.8776 50.8634 47.5347 51.0082C47.1919 51.1529 46.8147 51.2253 46.4033 51.2253C45.9462 51.2253 45.5462 51.1415 45.2033 50.9739C44.8681 50.8063 44.5862 50.5815 44.3576 50.2996C44.1366 50.0177 43.969 49.6901 43.8547 49.3168C43.7404 48.9434 43.6833 48.5472 43.6833 48.1282C43.6833 47.7091 43.7366 47.3129 43.8433 46.9396C43.9576 46.5663 44.1252 46.2425 44.3462 45.9682C44.5747 45.6863 44.8566 45.4653 45.1919 45.3053C45.5347 45.1377 45.9309 45.0539 46.3804 45.0539C46.5328 45.0539 46.6966 45.0691 46.8719 45.0996C47.0471 45.1301 47.2223 45.1834 47.3976 45.2596C47.5728 45.3282 47.7366 45.4234 47.889 45.5453C48.049 45.6596 48.1823 45.8044 48.289 45.9796H48.3119V42.9396H49.2833V51.0996ZM53.5358 42.9396H54.5072V45.991H54.5301C54.6901 45.6634 54.9415 45.4272 55.2844 45.2825C55.6272 45.1301 56.0044 45.0539 56.4158 45.0539C56.8729 45.0539 57.2691 45.1377 57.6044 45.3053C57.9472 45.4729 58.2291 45.7015 58.4501 45.991C58.6787 46.2729 58.8501 46.6006 58.9644 46.9739C59.0787 47.3472 59.1358 47.7434 59.1358 48.1625C59.1358 48.5815 59.0787 48.9777 58.9644 49.351C58.8577 49.7244 58.6901 50.052 58.4615 50.3339C58.2406 50.6082 57.9587 50.8253 57.6158 50.9853C57.2806 51.1453 56.8882 51.2253 56.4387 51.2253C56.2939 51.2253 56.1301 51.2101 55.9472 51.1796C55.772 51.1491 55.5968 51.0996 55.4215 51.031C55.2463 50.9625 55.0787 50.871 54.9187 50.7568C54.7663 50.6348 54.6368 50.4863 54.5301 50.311H54.5072V51.0996H53.5358V42.9396ZM58.1072 48.0939C58.1072 47.8196 58.0691 47.5529 57.9929 47.2939C57.9244 47.0272 57.8139 46.791 57.6615 46.5853C57.5168 46.3796 57.3263 46.2158 57.0901 46.0939C56.8615 45.972 56.591 45.911 56.2787 45.911C55.951 45.911 55.6729 45.9758 55.4444 46.1053C55.2158 46.2348 55.0291 46.4063 54.8844 46.6196C54.7396 46.8253 54.6329 47.0615 54.5644 47.3282C54.5034 47.5948 54.4729 47.8653 54.4729 48.1396C54.4729 48.4291 54.5072 48.711 54.5758 48.9853C54.6444 49.252 54.751 49.4882 54.8958 49.6939C55.0482 49.8996 55.2425 50.0672 55.4787 50.1968C55.7149 50.3187 56.0006 50.3796 56.3358 50.3796C56.671 50.3796 56.9491 50.3148 57.1701 50.1853C57.3987 50.0558 57.5815 49.8844 57.7187 49.671C57.8558 49.4577 57.9549 49.2139 58.0158 48.9396C58.0768 48.6653 58.1072 48.3834 58.1072 48.0939ZM62.3675 51.8882C62.2532 52.1777 62.1389 52.4215 62.0246 52.6196C61.918 52.8177 61.7961 52.9777 61.6589 53.0996C61.5294 53.2291 61.3808 53.3206 61.2132 53.3739C61.0532 53.4348 60.8665 53.4653 60.6532 53.4653C60.5389 53.4653 60.4246 53.4577 60.3104 53.4425C60.1961 53.4272 60.0856 53.4006 59.9789 53.3625V52.471C60.0627 52.5091 60.158 52.5396 60.2646 52.5625C60.3789 52.5929 60.4742 52.6082 60.5504 52.6082C60.7484 52.6082 60.9123 52.5587 61.0418 52.4596C61.1789 52.3682 61.2818 52.2348 61.3504 52.0596L61.7504 51.0653L59.4075 45.191H60.5046L62.2304 50.0253H62.2532L63.9104 45.191H64.9389L62.3675 51.8882ZM73.3197 47.3853V45.4539C73.3197 44.791 73.3083 44.5168 73.274 44.2082H75.0454C75.0226 44.4368 75.0112 44.6082 74.9997 44.9853H77.2169C77.8569 44.9853 78.234 44.9625 78.5083 44.9282V46.6196C78.1197 46.5853 77.6969 46.5625 77.274 46.5625H74.9997V47.3853H76.9883C77.5026 47.3853 77.754 47.3739 78.0397 47.3396C77.994 47.7625 77.9826 48.0939 77.9826 48.6196V50.5625C77.9826 51.3053 78.0054 51.7168 78.0512 52.1282H76.234V51.6825H72.6912V52.1168H70.8969C70.9426 51.7853 70.9654 51.2939 70.9654 50.6653V48.3682C70.9654 47.9339 70.954 47.6253 70.9312 47.3396C71.2283 47.3739 71.4797 47.3853 71.9712 47.3853H73.3197ZM72.6912 48.9853V50.1053H76.234V48.9853H72.6912ZM72.8054 42.3225V41.9568C72.8054 41.7053 72.794 41.5453 72.7597 41.3625H74.6454C74.6112 41.5339 74.5997 41.6939 74.5997 41.9796V42.3225H77.1026C77.8226 42.3225 78.3597 42.2996 78.714 42.2539V44.0139C78.2569 43.9796 77.6397 43.9568 77.1369 43.9568H70.6912C70.6912 44.1739 70.6912 44.3453 70.6912 44.4596C70.6912 48.4253 70.3254 50.4939 69.3426 52.1625C68.874 51.5225 68.5197 51.1568 67.9369 50.7339C68.714 49.3396 68.9312 47.8425 68.9312 44.0368C68.9312 43.1796 68.9197 42.6653 68.8969 42.2653C69.3426 42.2996 69.834 42.3225 70.4054 42.3225H72.8054ZM81.2512 45.8882H80.714C80.3712 45.8882 80.2226 45.8996 80.0397 45.911V44.871C79.9026 44.9739 79.8569 45.0082 79.6854 45.1225C79.4683 44.2653 79.3426 43.911 79.1026 43.3853C79.914 42.9282 80.5997 42.2539 81.1026 41.4196H82.794C83.1369 41.8653 83.5369 42.2425 84.154 42.6539V42.2768C84.4854 42.3225 84.7826 42.3339 85.3312 42.3339H86.2683V42.2425C86.2683 41.8196 86.2569 41.6025 86.2112 41.3625H87.7654C87.7197 41.6025 87.7083 41.8082 87.7083 42.2425V42.3339H88.3026C88.2112 42.1625 88.2112 42.1625 87.9026 41.6368L88.9997 41.2253C89.2969 41.6482 89.4912 41.9568 89.674 42.3225C89.7997 42.311 89.8454 42.2996 89.994 42.2882V43.8996C89.6854 43.8653 89.5026 43.8539 89.0683 43.8539H87.7083V44.3225H88.8512C89.4226 44.3225 89.6054 44.3225 89.834 44.2996C89.8112 44.6082 89.7997 44.8368 89.7997 45.5339V50.9625C89.7997 51.751 89.434 52.0253 88.4054 52.0253C88.3712 52.0253 88.2569 52.0253 88.0512 52.0139C88.0283 51.2596 87.9712 50.9853 87.754 50.5168C87.9712 50.5396 88.0512 50.5396 88.1197 50.5396C88.314 50.5396 88.3483 50.5053 88.3483 50.2882V49.671H87.7083V50.8596C87.7083 51.4425 87.7197 51.671 87.7426 51.9682H86.234C86.2569 51.6939 86.2683 51.431 86.2683 50.8939V49.671H85.6854V50.7796C85.6854 51.5225 85.6969 51.751 85.7197 52.1053H84.1997C84.2454 51.7053 84.2569 51.4082 84.2569 50.7796V45.5225C84.2569 44.8025 84.2569 44.6082 84.2226 44.2996C84.5197 44.3225 84.7254 44.3225 85.4226 44.3225H86.2683V43.8539H85.3312C84.8854 43.8539 84.5312 43.8653 84.2454 43.8882L83.9254 44.5168V45.911C83.754 45.8882 83.6397 45.8882 83.2854 45.8882H82.794V46.3568H83.0683C83.5254 46.3568 83.7426 46.3453 83.9826 46.3225V47.831C83.7197 47.7968 83.6397 47.7968 83.0683 47.7968H80.314C79.914 47.7968 79.6626 47.8082 79.3769 47.8425V46.311C79.6397 46.3453 79.8912 46.3568 80.314 46.3568H81.2512V45.8882ZM80.714 44.5282H81.2512C81.2512 44.0139 81.2397 43.9225 81.2283 43.751C80.9312 44.0825 80.7483 44.2653 80.4512 44.5282C80.5426 44.5282 80.5769 44.5282 80.714 44.5282ZM82.794 44.5282H83.274C83.6054 44.5282 83.7312 44.5282 83.8683 44.5053C83.3083 44.1282 83.1712 44.0253 82.8283 43.7168C82.8054 43.8996 82.8054 44.0253 82.794 44.5282ZM81.3654 43.591H82.6912C82.394 43.3053 82.2569 43.1339 81.9826 42.7796C81.7312 43.1453 81.6169 43.2939 81.3654 43.591ZM86.2683 48.2996V47.7168H85.6854V48.2996H86.2683ZM87.7083 48.2996H88.3483V47.7168H87.7083V48.2996ZM87.7083 45.7739V46.3453H88.3483V45.7739H87.7083ZM86.2683 45.7739H85.6854V46.3453H86.2683V45.7739ZM83.9026 52.0025H82.2683V51.6825H81.4912V52.1053H79.754C79.7883 51.831 79.7997 51.6025 79.7997 51.1568V49.0539C79.7997 48.6768 79.7883 48.4368 79.754 48.151C79.994 48.1739 80.2912 48.1853 80.714 48.1853H83.0226C83.4569 48.1853 83.674 48.1739 83.8912 48.151C83.8797 48.3453 83.8683 48.5282 83.8683 48.9282V51.2596C83.8683 51.6482 83.8797 51.7968 83.9026 52.0025ZM81.4797 49.5453V50.2882H82.2683V49.5453H81.4797ZM91.9483 42.0825H94.9083C94.9083 41.7739 94.8969 41.6139 94.8512 41.3739H96.7712C96.7369 41.6025 96.714 41.7968 96.714 42.0253V42.0825H99.9026C100.451 42.0825 100.76 42.071 101.16 42.0139V43.591C100.805 43.5453 100.508 43.5339 99.914 43.5339H91.8454C91.2626 43.5339 90.9769 43.5453 90.6226 43.591V42.0139C91.0226 42.0596 91.3654 42.0825 91.9483 42.0825ZM98.4969 50.4253V50.5168C98.7369 50.5282 98.8283 50.5282 98.9083 50.5282C99.114 50.5282 99.1712 50.4825 99.1712 50.311V48.1053H92.5997V50.7796C92.5997 51.4539 92.6112 51.7625 92.6569 52.1396H90.8283C90.874 51.8196 90.8969 51.3396 90.8969 50.7796V47.7625C90.8969 47.4082 90.8854 47.0653 90.8512 46.7225C91.2512 46.7568 91.594 46.7682 92.1083 46.7682H99.7654C100.314 46.7682 100.611 46.7568 100.92 46.7225C100.885 47.0425 100.874 47.3396 100.874 47.7625V50.4253C100.874 51.3282 100.794 51.5796 100.463 51.7968C100.188 51.9796 99.6854 52.0596 98.8969 52.0596C98.6797 52.0596 98.314 52.0482 98.0054 52.0368C97.994 51.6253 97.9712 51.4768 97.8912 51.111H97.6854H94.874V51.5453H93.2054C93.2397 51.3053 93.2512 51.0653 93.2512 50.631V49.0425C93.2512 48.7568 93.2397 48.5739 93.2169 48.3796C93.4912 48.4025 93.7312 48.4139 94.1426 48.4139H97.674C98.1312 48.4139 98.314 48.4025 98.5312 48.3796C98.5083 48.5853 98.4969 48.7568 98.4969 49.0653V50.4253ZM94.874 49.5225V49.9339H96.9654V49.5225H94.874ZM92.2112 45.7053V44.5853C92.2112 44.2425 92.1997 44.0825 92.1654 43.8082C92.5083 43.831 92.7712 43.8425 93.3197 43.8425H98.554C99.0454 43.8425 99.3083 43.831 99.6397 43.8082C99.6054 44.0596 99.594 44.2425 99.594 44.5968V45.7053C99.594 46.0825 99.6054 46.2425 99.6397 46.4939C99.2854 46.471 99.0226 46.4596 98.5197 46.4596H93.2969C92.8169 46.4596 92.5312 46.471 92.1654 46.4939C92.1997 46.2196 92.2112 46.0482 92.2112 45.7053ZM93.8912 44.9282V45.3853H97.8912V44.9282H93.8912ZM105.034 43.671V42.2082C104.737 43.1682 104.623 43.4539 104.245 44.2996V50.8368C104.245 51.3396 104.257 51.6596 104.314 52.151H102.497C102.554 51.6025 102.565 51.3625 102.565 50.8482V47.9225C102.565 47.8539 102.577 47.4653 102.588 46.7682C102.303 47.1568 102.12 47.3968 102.04 47.4882C101.903 46.7225 101.743 46.1396 101.468 45.3968C102.108 44.6996 102.565 43.9453 102.954 42.9053C103.205 42.231 103.343 41.751 103.4 41.271L105.194 41.6825L105.08 42.0596C105.377 42.1053 105.731 42.1168 106.337 42.1168H108.108C108.143 41.8082 108.143 41.7396 108.165 41.3396L109.948 41.4425C109.914 41.6253 109.914 41.6253 109.834 42.1168H111.114C111.708 42.1168 112.017 42.1053 112.428 42.0482V43.6596C112.085 43.6368 111.765 43.6253 111.354 43.6253H109.56C109.514 43.8425 109.514 43.8539 109.468 44.071H110.965C111.525 44.071 111.674 44.071 111.914 44.0482C111.868 44.4482 111.857 44.7339 111.857 45.1796V48.7796C111.857 49.2253 111.868 49.4882 111.903 49.8425C111.48 49.8196 111.274 49.8196 110.965 49.8196H107.72C107.411 49.8196 107.263 49.8196 106.805 49.8425C106.828 49.4768 106.828 49.3053 106.828 48.9625V44.9282C106.828 44.4482 106.828 44.2653 106.805 44.0596C107.023 44.071 107.171 44.071 107.697 44.071H107.765C107.811 43.9225 107.823 43.8425 107.868 43.6253H106.12C105.617 43.6253 105.4 43.6368 105.034 43.671ZM108.474 45.2253V45.6596H110.223V45.2253H108.474ZM108.474 46.711V47.1568H110.223V46.711H108.474ZM108.474 48.2082V48.6539H110.223V48.2082H108.474ZM106.36 52.151H104.668C104.714 51.751 104.725 51.3968 104.725 50.711V45.7053C104.725 45.0653 104.714 44.7225 104.668 44.3339H106.417C106.371 44.711 106.36 45.0539 106.36 45.7168V50.1968H111.034C111.617 50.1968 111.96 50.1853 112.371 50.1396V51.7853C111.925 51.7396 111.571 51.7168 111.011 51.7168H106.36V52.151ZM115.697 50.1739H115.274C114.76 50.1739 114.44 50.1853 114.04 50.2196C114.074 49.8425 114.085 49.4768 114.085 48.8253V46.2996C114.085 45.671 114.074 45.271 114.04 44.9282C114.383 44.951 114.634 44.9625 115.16 44.9625H121.354C121.983 44.9625 122.257 44.951 122.588 44.9282C122.554 45.2482 122.543 45.6368 122.543 46.2996V48.8939C122.543 49.5682 122.554 49.9453 122.588 50.2196C122.223 50.1853 121.914 50.1739 121.365 50.1739H120.748C121.64 50.5282 122.474 50.6768 123.823 50.7568C123.491 51.2368 123.343 51.511 123.034 52.2768C121.96 52.1282 121.343 51.9682 120.531 51.671C119.823 51.4082 119.411 51.2139 118.817 50.8368L119.583 50.1739H116.783L117.617 50.8368C117.034 51.2368 116.6 51.4539 115.788 51.751C115.045 52.0139 114.52 52.151 113.697 52.2996C113.457 51.7396 113.251 51.3853 112.828 50.8368C114.12 50.6996 114.931 50.5168 115.697 50.1739ZM115.788 46.151V46.4939H120.84V46.151H115.788ZM115.788 47.3968V47.7396H120.84V47.3968H115.788ZM115.788 48.6425V48.9968H120.84V48.6425H115.788ZM123.228 42.6996V43.671C123.228 44.1853 123.24 44.4253 123.285 44.6996C123.023 44.6768 122.725 44.6653 122.143 44.6653H114.463C113.891 44.6653 113.56 44.6768 113.32 44.6996C113.365 44.3796 113.377 44.1739 113.377 43.671V42.6996C113.377 42.1739 113.365 41.9682 113.32 41.6025C113.628 41.6368 113.948 41.6482 114.623 41.6482H121.983C122.657 41.6482 122.988 41.6368 123.285 41.6025C123.24 41.9339 123.228 42.151 123.228 42.6996ZM116.131 43.4196V42.9168H115.023V43.4196H116.131ZM118.794 43.4196V42.9168H117.697V43.4196H118.794ZM120.36 43.4196H121.514V42.9168H120.36V43.4196ZM129.263 50.7796V50.8482C129.263 51.511 129.274 51.8082 129.32 52.1396H127.525C127.571 51.7282 127.594 51.3739 127.594 50.871V50.071C126.6 50.3796 125.64 50.6425 125.263 50.7339C124.988 50.791 124.783 50.8482 124.6 50.9282L124.177 49.1339C124.44 49.111 124.52 49.0996 124.908 49.0425V43.2825C124.623 43.2939 124.543 43.2939 124.303 43.3168V41.6253C124.657 41.671 125.023 41.6939 125.468 41.6939H128.817C129.343 41.6939 129.617 41.6825 129.994 41.6253V42.2425C130.314 42.2768 130.463 42.2768 130.817 42.2768H133.651C133.96 42.2768 134.314 42.2539 134.645 42.2082C134.623 42.5282 134.611 42.6653 134.588 43.0082C134.463 45.1796 133.994 46.9853 133.16 48.6196C133.788 49.3968 134.188 49.7396 135.091 50.2996C134.668 50.9053 134.394 51.3968 134.097 52.0939C133.205 51.4539 132.748 51.031 132.108 50.2539C131.434 51.0882 131.034 51.4539 129.994 52.1968C129.765 51.6368 129.525 51.191 129.263 50.7796ZM129.263 43.271V50.3453C129.971 49.9225 130.554 49.3853 131.057 48.7225C130.417 47.5453 130.051 46.4482 129.628 44.4596L131.08 43.911H130.771C130.188 43.911 129.88 43.9225 129.605 43.9682V43.2825C129.514 43.271 129.4 43.271 129.263 43.271ZM132.771 43.911H131.183C131.48 45.4196 131.663 46.0253 132.074 46.9053C132.485 45.8196 132.634 45.1682 132.771 43.911ZM126.6 43.271V44.1053H127.594V43.271H126.6ZM126.6 45.4996V46.311H127.594V45.4996H126.6ZM126.6 47.751V48.7339C126.908 48.6653 127.228 48.5853 127.594 48.5053V47.751H126.6ZM137.88 44.311V43.2368C137.88 42.6425 137.857 42.1853 137.8 41.8196H139.994C139.925 42.1968 139.903 42.5168 139.903 43.191V44.1053L143.891 43.671C144.348 43.6253 144.474 43.591 144.703 43.4882L145.845 44.5396C145.663 44.7339 145.663 44.7339 145.468 45.1682C145.137 45.8653 144.691 46.6196 144.234 47.191C143.8 47.751 143.388 48.1396 142.588 48.7568C142.04 48.1625 141.628 47.831 140.988 47.4653C141.457 47.191 141.788 46.9625 142.188 46.5853C142.554 46.2539 142.748 46.0025 143.023 45.5339L139.891 45.8996V48.3453C139.891 49.1796 139.914 49.3625 140.074 49.4882C140.2 49.6139 140.611 49.671 141.285 49.671C142.68 49.671 143.971 49.4996 144.965 49.191L145.034 51.3282C144.954 51.3282 144.885 51.3282 144.851 51.3282C144.565 51.3396 144.554 51.351 144.314 51.3739C143.217 51.4768 141.925 51.5568 141.263 51.5568C140.268 51.5568 139.514 51.4882 139.068 51.351C138.565 51.191 138.154 50.7682 138.005 50.2653C137.891 49.8653 137.88 49.7053 137.88 48.6082V46.1168L137.194 46.1968C136.28 46.2996 136.131 46.3225 135.685 46.4368L135.491 44.471C135.708 44.4825 135.857 44.4939 135.914 44.4939C136.074 44.4939 136.611 44.4482 136.988 44.4139L137.88 44.311ZM147.194 43.8653L148.508 42.2539C149.948 43.0996 150.691 43.6253 151.651 44.4939L150.303 46.2768C149.308 45.2368 148.337 44.4825 147.194 43.8653ZM147.903 51.5453L147.308 49.351C148.474 49.2596 149.674 48.9739 150.748 48.5282C152.188 47.9339 153.217 47.0768 154.097 45.7053C154.577 44.9739 154.885 44.3453 155.217 43.4653C155.777 44.1396 156.04 44.3682 156.897 44.9968C155.857 47.2482 154.771 48.5968 153.171 49.6253C151.937 50.4253 150.851 50.8482 148.725 51.3396C148.28 51.4425 148.211 51.4539 147.903 51.5453ZM161.388 41.3853L163.434 41.7853C163.423 41.8082 163.263 42.1282 162.943 42.7796L166.017 42.7453C166.348 42.7453 166.497 42.711 166.714 42.5968L167.731 43.6025C167.594 43.751 167.56 43.8196 167.468 44.0939C166.794 46.1282 166.188 47.3625 165.343 48.5053C164.611 49.4882 163.674 50.3568 162.565 51.0882C161.948 51.4882 161.48 51.7396 160.6 52.1396C160.177 51.3968 159.903 51.0425 159.263 50.4253C161 49.8082 162.108 49.1339 163.137 48.0825C162.428 47.4996 161.868 47.1339 161.011 46.6653L162.211 45.2253C163.228 45.7739 163.594 46.0025 164.314 46.5282C164.783 45.8082 165.057 45.191 165.297 44.4368L162.131 44.4596C161.468 45.6025 160.68 46.5396 159.525 47.5568C158.977 46.9625 158.623 46.6768 157.88 46.2653C159.228 45.2025 160.051 44.2539 160.725 42.9853C161.045 42.4025 161.24 41.911 161.388 41.3853ZM169.194 47.8425V45.6368C169.731 45.7168 170.348 45.7396 171.537 45.7396H177C178.143 45.7396 178.577 45.7168 179.343 45.6368V47.8425C178.794 47.7853 178.291 47.7739 176.988 47.7739H171.548C170.268 47.7739 169.891 47.7853 169.194 47.8425Z" fill="white"/>
<g clip-path="url(#clip0_108_17629)">
<path d="M217.882 14.2111V26.9091H227.626V29.4291H205.632V26.9091H215.152V14.2111H206.962V11.6211H226.268V14.2111H217.882Z" fill="white"/>
<path d="M176.777 5.85156H201.655C200.913 16.1556 197.959 27.1036 181.019 30.6876L179.815 27.9716C192.933 25.3116 197.245 18.5496 198.309 8.73556H176.777V5.85156Z" fill="white"/>
<path d="M159.306 20.7629L156.968 21.3509C156.506 18.5509 155.652 16.3669 154.63 14.2389L156.814 13.6229C158.214 16.3109 158.914 19.0969 159.292 20.7629H159.306ZM165.69 19.4469L163.366 20.0069C162.96 17.6129 162.372 15.2609 161.434 13.0349L163.59 12.5449C164.43 14.4629 165.312 17.5569 165.69 19.4469ZM158.438 31.1649L156.8 29.1769C165.844 27.3149 169.918 23.3529 171.584 12.8809L174.118 13.3989C172.2 23.3669 168.462 28.7569 158.438 31.1509V31.1649Z" fill="white"/>
<path d="M145.376 27.0751H151.06V29.3851H130.396V27.0751H142.814C143.808 22.2591 144.102 19.2631 144.298 15.8191H133.224V13.4531H146.93C146.762 18.4371 146.146 23.3371 145.39 27.0611L145.376 27.0751Z" fill="white"/>
<path d="M105.364 4.66377V14.7018C111.132 13.3718 115.598 11.8458 120.456 9.35377L121.786 12.0698C114.688 15.3038 108.766 16.8018 105.364 17.5158V24.6698C105.364 27.0078 105.952 27.2598 109.634 27.2598H117.964C120.554 27.2598 123.144 27.1338 125.216 26.7418L125.384 29.6538C123.41 29.9758 120.33 30.0738 118.286 30.0738H109.214C104.384 30.0738 102.382 29.2618 102.382 25.1458V4.66377H105.364ZM119.448 3.69777L121.52 2.53577C122.976 4.57977 123.788 6.23177 124.824 8.62577L122.626 9.92777C121.66 7.36577 120.904 5.93777 119.448 3.71177V3.69777ZM124.404 2.17177L126.476 1.00977C127.904 2.95577 128.814 4.83177 129.752 7.12777L127.554 8.38777C126.588 5.79777 126.028 4.63577 124.418 2.17177H124.404Z" fill="white"/>
<path d="M93.8278 12.501L94.4718 16.869C91.4898 17.485 89.6418 17.611 87.0938 17.835C87.7798 19.039 88.4238 20.075 89.6838 21.433L85.0778 24.219C83.1318 22.175 82.0678 19.585 81.4238 18.031H67.4658V13.789H80.0378C79.7718 12.879 79.6178 12.207 79.4218 11.269H68.5998V6.90105H78.7358C78.5678 5.37505 78.5678 4.92705 78.4698 3.49905L83.8178 3.37305C83.8458 4.40905 83.8878 4.85705 84.0138 6.74705C88.2838 6.48105 90.4538 6.00505 91.4618 5.73905L91.9798 10.205C89.8378 10.653 86.9258 10.947 84.6858 11.073C84.9518 12.235 85.0778 12.795 85.3298 13.663C89.7678 13.397 92.2598 12.851 93.8138 12.501H93.8278ZM72.1698 20.047L76.3418 21.867C75.5298 22.833 75.1798 23.519 75.1798 24.163C75.1798 25.983 77.8398 26.459 82.4318 26.459C86.4498 26.459 89.2638 26.235 91.1118 26.067L91.3358 31.051C89.7818 31.177 88.3258 31.275 84.0418 31.275C77.4618 31.275 75.2918 30.757 73.4858 29.945C71.2178 28.909 69.9298 26.837 69.9298 24.961C69.9298 23.239 70.7138 21.727 72.1698 20.033V20.047Z" fill="white"/>
<path d="M45.0514 32.8983L42.0414 29.3983C42.0414 32.6743 40.2914 32.8003 38.9054 32.8003H34.5374L33.6974 27.8163H36.4834C37.0994 27.8163 37.2674 27.7183 37.2674 26.9483V22.4823C35.8394 22.8743 34.8734 23.0983 33.7394 23.3923L33.1514 18.5343C34.1874 18.3383 35.3914 18.1143 37.2674 17.6663V11.9403H33.4734V7.4043H37.2674V2.1683H42.0554V7.3763H44.2254V5.8503H47.9774C48.0054 4.8143 47.9774 3.9043 47.9494 2.1543H52.9054C52.9054 3.4143 52.9054 4.0303 52.8774 5.8503H64.1194V10.4843H52.6814C52.5834 11.9123 52.5134 12.5283 52.4854 12.9763H62.6914V17.3443C62.3694 18.9683 61.7534 21.8523 59.3874 25.3803C61.5294 27.2003 63.3074 28.0403 64.5954 28.5863L62.1034 32.9963C60.0034 31.8343 58.1134 30.6583 56.3354 29.0063C53.7174 31.4703 51.4774 32.4083 50.2174 32.9263L47.7254 29.1043C46.5214 31.0783 45.8494 31.9603 45.0654 32.8983H45.0514ZM47.8654 10.4843H44.6314V11.9123H42.0414V16.3503C43.2454 16.0003 43.7634 15.8323 44.8554 15.4823L44.9814 19.9903C44.1974 20.3123 43.5954 20.5363 42.0274 21.0963V28.6143C46.9834 21.9783 47.4734 16.7983 47.8514 10.5123L47.8654 10.4843ZM58.1694 17.3583H51.9114C51.8834 17.5823 51.7434 18.4223 51.5894 19.3323L54.4034 18.1283C54.7534 19.1643 55.1454 20.2983 56.2234 21.9223C57.5814 19.8503 57.9034 18.4223 58.1694 17.3583ZM51.2394 20.8303C50.8194 22.4123 50.0074 25.0723 48.0614 28.5723C48.9294 28.2503 51.0994 27.4103 53.3114 25.3943C52.1494 23.5463 51.5894 21.9643 51.2394 20.8303Z" fill="white"/>
<path d="M3.92 32.8018L0 28.8818C1.106 26.8798 2.66 23.7018 2.66 14.3778V3.00977H29.96V12.7958H21.056V14.6718H31.136V18.8438H21.056V20.9438H29.148V32.3818H8.33V20.9438H16.24V18.8438H7.364C7.098 27.2998 4.704 31.4158 3.934 32.8018H3.92ZM7.378 12.7958V14.6718H16.226V12.7958H7.378ZM25.172 9.07177V7.02777H7.42V9.07177H25.172ZM24.36 28.3358V24.7798H13.062V28.3358H24.36Z" fill="white"/>
<path d="M266.321 24.3316V14.6996C266.321 13.9996 266.755 13.3696 267.413 13.1316C268.715 12.6836 269.653 11.4376 269.653 9.98157V1.32957C269.653 0.545569 268.981 -0.0704314 268.183 -0.000431368C267.483 0.0695686 266.993 0.699569 266.993 1.39957V7.82557C266.993 8.10557 266.769 8.32957 266.489 8.32957C266.209 8.32957 265.985 8.10557 265.985 7.82557V1.41357C265.985 0.713569 265.481 0.0835686 264.795 0.0135686C263.997 -0.0704314 263.325 0.559569 263.325 1.34357V7.83957C263.325 8.11957 263.101 8.34357 262.821 8.34357C262.541 8.34357 262.317 8.11957 262.317 7.83957V1.41357C262.317 0.713569 261.813 0.0835686 261.127 0.0135686C260.329 -0.0704314 259.657 0.559569 259.657 1.34357V10.0096H246.329C246.049 10.0096 245.797 10.0796 245.573 10.2056C246.049 9.18357 246.329 7.97957 246.329 6.67757C246.329 2.98157 244.089 -0.000431368 241.317 -0.000431368C238.545 -0.000431368 236.319 2.98157 236.319 6.66357C236.319 9.19757 237.383 11.4096 238.951 12.5296C239.371 12.8376 239.651 13.2996 239.651 13.8176V24.3316C237.565 25.4516 236.319 26.8236 236.319 28.3216C236.319 32.0036 243.781 34.9856 252.979 34.9856C262.177 34.9856 269.639 32.0036 269.639 28.3216C269.639 26.8236 268.393 25.4376 266.307 24.3316H266.321ZM261.897 13.1456C262.555 13.3696 262.989 14.0136 262.989 14.7136V23.0016C262.457 22.8476 261.897 22.6936 261.323 22.5536V12.8656C261.505 12.9776 261.687 13.0616 261.897 13.1316V13.1456ZM257.571 11.6616H259.657V15.6236C259.657 16.2536 259.097 16.7576 258.439 16.6456C257.921 16.5616 257.571 16.0716 257.571 15.5536V11.6616ZM253.819 11.6616H255.905V15.6236C255.905 16.2536 255.345 16.7576 254.687 16.6456C254.169 16.5616 253.819 16.0856 253.819 15.5536V11.6476V11.6616ZM250.067 11.6616H252.153V15.6236C252.153 16.2536 251.593 16.7576 250.935 16.6456C250.417 16.5616 250.067 16.0856 250.067 15.5536V11.6476V11.6616ZM246.329 11.6616H248.415V15.6236C248.415 16.2536 247.855 16.7576 247.197 16.6456C246.679 16.5616 246.329 16.0856 246.329 15.5676V11.6616ZM246.329 18.1016C246.679 18.2556 247.043 18.3396 247.449 18.3256C248.149 18.3116 248.779 18.0176 249.241 17.5696C249.731 18.0456 250.389 18.3256 251.117 18.3256C251.845 18.3256 252.503 18.0316 252.993 17.5696C253.483 18.0456 254.141 18.3256 254.869 18.3256C255.597 18.3256 256.255 18.0316 256.745 17.5696C257.221 18.0176 257.851 18.3116 258.537 18.3256C258.929 18.3256 259.307 18.2556 259.657 18.1016V28.3356H256.325V23.3376C256.325 21.5036 254.827 20.0056 252.993 20.0056C251.159 20.0056 249.661 21.5036 249.661 23.3376V28.3356H246.329V18.1016ZM242.983 13.8316C242.983 13.3136 243.263 12.8376 243.683 12.5436C244.033 12.2916 244.355 11.9696 244.649 11.6196C244.649 11.6336 244.649 11.6616 244.649 11.6756V22.5676C244.075 22.7076 243.515 22.8476 242.983 23.0156V13.8316ZM252.993 33.3336C243.837 33.3336 237.999 30.3656 237.999 28.3356C237.999 27.6916 238.587 26.9636 239.665 26.2496V28.2376C239.665 29.1336 240.337 29.9456 241.247 29.9876C242.213 30.0436 242.997 29.2736 242.997 28.3216V24.7376C243.515 24.5696 244.075 24.4016 244.663 24.2616V28.3216C244.663 29.2456 245.405 29.9876 246.329 29.9876H259.657C260.581 29.9876 261.323 29.2456 261.323 28.3216V24.2616C261.911 24.4016 262.471 24.5696 262.989 24.7376V28.2376C262.989 29.1336 263.661 29.9456 264.571 30.0016C265.537 30.0576 266.321 29.2876 266.321 28.3356V26.2496C267.399 26.9496 267.987 27.6916 267.987 28.3356C267.987 30.3796 262.149 33.3336 252.993 33.3336Z" fill="white"/>
</g>
<defs>
<clipPath id="clip0_108_17629">
<rect width="269.654" height="35" fill="white"/>
</clipPath>
</defs>
</svg>
