<svg width="224" height="44" viewBox="0 0 224 44" fill="none" xmlns="http://www.w3.org/2000/svg">
    <path
        d="M1.97714 36.9666H4.10286C4.72 36.9742 5.16952 36.8485 5.45143 36.5894C5.74095 36.3304 5.88571 35.9571 5.88571 35.4694C5.88571 34.9818 5.74095 34.6123 5.45143 34.3609C5.16952 34.1018 4.72 33.9723 4.10286 33.9723H1.97714V36.9666ZM0.891429 33.058H4.46857C5.29143 33.058 5.91238 33.2714 6.33143 33.698C6.7581 34.1171 6.97143 34.7075 6.97143 35.4694C6.97143 36.2314 6.7581 36.8256 6.33143 37.2523C5.91238 37.679 5.29143 37.8885 4.46857 37.8809H1.97714V41.218H0.891429V33.058ZM7.87929 35.3094H8.79357V36.5552H8.81643C9.05262 36.0752 9.34214 35.7209 9.685 35.4923C10.0279 35.2637 10.4621 35.1571 10.9879 35.1723V36.2009C10.5993 36.2009 10.2679 36.2542 9.99357 36.3609C9.71929 36.4675 9.49833 36.6237 9.33071 36.8294C9.16309 37.0352 9.04119 37.2866 8.965 37.5837C8.88881 37.8733 8.85071 38.2085 8.85071 38.5894V41.218H7.87929V35.3094ZM15.3928 37.698C15.3775 37.4694 15.3242 37.2523 15.2328 37.0466C15.149 36.8409 15.0309 36.6656 14.8785 36.5209C14.7337 36.3685 14.5585 36.2504 14.3528 36.1666C14.1547 36.0752 13.9337 36.0294 13.6899 36.0294C13.4385 36.0294 13.2099 36.0752 13.0042 36.1666C12.8061 36.2504 12.6347 36.3685 12.4899 36.5209C12.3451 36.6733 12.2309 36.8523 12.1471 37.058C12.0632 37.2561 12.0137 37.4694 11.9985 37.698H15.3928ZM16.3299 39.3437C16.2004 40.0066 15.9147 40.5056 15.4728 40.8409C15.0309 41.1761 14.4747 41.3437 13.8042 41.3437C13.3318 41.3437 12.9204 41.2675 12.5699 41.1152C12.2271 40.9628 11.9375 40.7494 11.7013 40.4752C11.4651 40.2009 11.2861 39.8733 11.1642 39.4923C11.0499 39.1114 10.9851 38.6961 10.9699 38.2466C10.9699 37.7971 11.0385 37.3856 11.1756 37.0123C11.3128 36.639 11.5032 36.3152 11.7471 36.0409C11.9985 35.7666 12.2918 35.5533 12.6271 35.4009C12.9699 35.2485 13.3432 35.1723 13.7471 35.1723C14.2728 35.1723 14.7071 35.2828 15.0499 35.5037C15.4004 35.7171 15.6785 35.9914 15.8842 36.3266C16.0975 36.6618 16.2423 37.0275 16.3185 37.4237C16.4023 37.8199 16.4366 38.1971 16.4213 38.5552H11.9985C11.9909 38.8142 12.0213 39.0618 12.0899 39.298C12.1585 39.5266 12.269 39.7323 12.4213 39.9152C12.5737 40.0904 12.768 40.2314 13.0042 40.338C13.2404 40.4447 13.5185 40.498 13.8385 40.498C14.2499 40.498 14.5851 40.4028 14.8442 40.2123C15.1109 40.0218 15.2861 39.7323 15.3699 39.3437H16.3299ZM17.794 39.3552C17.8016 39.5685 17.8512 39.7514 17.9426 39.9037C18.034 40.0485 18.1521 40.1666 18.2969 40.258C18.4493 40.3418 18.6169 40.4028 18.7997 40.4409C18.9902 40.479 19.1845 40.498 19.3826 40.498C19.535 40.498 19.695 40.4866 19.8626 40.4637C20.0302 40.4409 20.1826 40.399 20.3197 40.338C20.4645 40.2771 20.5826 40.1894 20.674 40.0752C20.7654 39.9533 20.8112 39.8009 20.8112 39.618C20.8112 39.3666 20.7159 39.1761 20.5254 39.0466C20.335 38.9171 20.095 38.8142 19.8054 38.738C19.5235 38.6542 19.215 38.5818 18.8797 38.5209C18.5445 38.4523 18.2321 38.3609 17.9426 38.2466C17.6607 38.1247 17.4245 37.9571 17.234 37.7437C17.0435 37.5304 16.9483 37.2333 16.9483 36.8523C16.9483 36.5552 17.0131 36.2999 17.1426 36.0866C17.2797 35.8733 17.4512 35.7018 17.6569 35.5723C17.8702 35.4352 18.1064 35.3361 18.3654 35.2752C18.6321 35.2066 18.895 35.1723 19.154 35.1723C19.4893 35.1723 19.7978 35.2028 20.0797 35.2637C20.3616 35.3171 20.6093 35.4161 20.8226 35.5609C21.0435 35.698 21.2188 35.8885 21.3483 36.1323C21.4778 36.3685 21.554 36.6656 21.5769 37.0237H20.6054C20.5902 36.8333 20.5407 36.6771 20.4569 36.5552C20.3731 36.4256 20.2664 36.3228 20.1369 36.2466C20.0073 36.1704 19.8626 36.1171 19.7026 36.0866C19.5502 36.0485 19.394 36.0294 19.234 36.0294C19.0893 36.0294 18.9407 36.0409 18.7883 36.0637C18.6435 36.0866 18.5102 36.1285 18.3883 36.1894C18.2664 36.2428 18.1673 36.319 18.0912 36.418C18.015 36.5094 17.9769 36.6314 17.9769 36.7837C17.9769 36.9514 18.034 37.0923 18.1483 37.2066C18.2702 37.3133 18.4226 37.4047 18.6054 37.4809C18.7883 37.5494 18.994 37.6104 19.2226 37.6637C19.4512 37.7094 19.6797 37.759 19.9083 37.8123C20.1521 37.8656 20.3883 37.9304 20.6169 38.0066C20.8531 38.0828 21.0588 38.1856 21.234 38.3152C21.4169 38.4371 21.5616 38.5933 21.6683 38.7837C21.7826 38.9742 21.8397 39.2104 21.8397 39.4923C21.8397 39.8504 21.7635 40.1475 21.6112 40.3837C21.4664 40.6199 21.2721 40.8104 21.0283 40.9552C20.7921 41.0999 20.5216 41.199 20.2169 41.2523C19.9197 41.3133 19.6226 41.3437 19.3254 41.3437C18.9978 41.3437 18.6854 41.3094 18.3883 41.2409C18.0912 41.1723 17.8283 41.0618 17.5997 40.9094C17.3712 40.7494 17.1883 40.5437 17.0512 40.2923C16.914 40.0333 16.8378 39.7209 16.8226 39.3552H17.794ZM26.7883 37.698C26.7731 37.4694 26.7197 37.2523 26.6283 37.0466C26.5445 36.8409 26.4264 36.6656 26.274 36.5209C26.1293 36.3685 25.954 36.2504 25.7483 36.1666C25.5502 36.0752 25.3293 36.0294 25.0854 36.0294C24.834 36.0294 24.6054 36.0752 24.3997 36.1666C24.2016 36.2504 24.0302 36.3685 23.8854 36.5209C23.7407 36.6733 23.6264 36.8523 23.5426 37.058C23.4588 37.2561 23.4093 37.4694 23.394 37.698H26.7883ZM27.7254 39.3437C27.5959 40.0066 27.3102 40.5056 26.8683 40.8409C26.4264 41.1761 25.8702 41.3437 25.1997 41.3437C24.7273 41.3437 24.3159 41.2675 23.9654 41.1152C23.6226 40.9628 23.3331 40.7494 23.0969 40.4752C22.8607 40.2009 22.6816 39.8733 22.5597 39.4923C22.4454 39.1114 22.3807 38.6961 22.3654 38.2466C22.3654 37.7971 22.434 37.3856 22.5712 37.0123C22.7083 36.639 22.8988 36.3152 23.1426 36.0409C23.394 35.7666 23.6873 35.5533 24.0226 35.4009C24.3654 35.2485 24.7388 35.1723 25.1426 35.1723C25.6683 35.1723 26.1026 35.2828 26.4454 35.5037C26.7959 35.7171 27.074 35.9914 27.2797 36.3266C27.4931 36.6618 27.6378 37.0275 27.714 37.4237C27.7978 37.8199 27.8321 38.1971 27.8169 38.5552H23.394C23.3864 38.8142 23.4169 39.0618 23.4854 39.298C23.554 39.5266 23.6645 39.7323 23.8169 39.9152C23.9693 40.0904 24.1635 40.2314 24.3997 40.338C24.6359 40.4447 24.914 40.498 25.234 40.498C25.6454 40.498 25.9807 40.4028 26.2397 40.2123C26.5064 40.0218 26.6816 39.7323 26.7654 39.3437H27.7254ZM28.5953 35.3094H29.5096V36.2466H29.5324C29.9362 35.5304 30.5762 35.1723 31.4524 35.1723C31.841 35.1723 32.1648 35.2256 32.4238 35.3323C32.6829 35.439 32.8924 35.5875 33.0524 35.778C33.2124 35.9685 33.3229 36.1971 33.3838 36.4637C33.4524 36.7228 33.4867 37.0123 33.4867 37.3323V41.218H32.5153V37.218C32.5153 36.8523 32.4086 36.5628 32.1953 36.3494C31.9819 36.1361 31.6886 36.0294 31.3153 36.0294C31.0181 36.0294 30.7591 36.0752 30.5381 36.1666C30.3248 36.258 30.1457 36.3875 30.001 36.5552C29.8562 36.7228 29.7457 36.9209 29.6696 37.1494C29.601 37.3704 29.5667 37.6142 29.5667 37.8809V41.218H28.5953V35.3094ZM36.0657 35.3094H37.2429V36.1666H36.0657V39.8352C36.0657 39.9494 36.0733 40.0409 36.0886 40.1094C36.1114 40.178 36.1495 40.2314 36.2029 40.2694C36.2562 40.3075 36.3286 40.3342 36.42 40.3494C36.519 40.3571 36.6448 40.3609 36.7971 40.3609H37.2429V41.218H36.5C36.2486 41.218 36.0314 41.2028 35.8486 41.1723C35.6733 41.1342 35.5286 41.0694 35.4143 40.978C35.3076 40.8866 35.2276 40.7571 35.1743 40.5894C35.121 40.4218 35.0943 40.2009 35.0943 39.9266V36.1666H34.0886V35.3094H35.0943V33.538H36.0657V35.3094ZM42.1963 37.698C42.1811 37.4694 42.1278 37.2523 42.0363 37.0466C41.9525 36.8409 41.8344 36.6656 41.6821 36.5209C41.5373 36.3685 41.3621 36.2504 41.1563 36.1666C40.9582 36.0752 40.7373 36.0294 40.4935 36.0294C40.2421 36.0294 40.0135 36.0752 39.8078 36.1666C39.6097 36.2504 39.4382 36.3685 39.2935 36.5209C39.1487 36.6733 39.0344 36.8523 38.9506 37.058C38.8668 37.2561 38.8173 37.4694 38.8021 37.698H42.1963ZM43.1335 39.3437C43.004 40.0066 42.7182 40.5056 42.2763 40.8409C41.8344 41.1761 41.2782 41.3437 40.6078 41.3437C40.1354 41.3437 39.724 41.2675 39.3735 41.1152C39.0306 40.9628 38.7411 40.7494 38.5049 40.4752C38.2687 40.2009 38.0897 39.8733 37.9678 39.4923C37.8535 39.1114 37.7887 38.6961 37.7735 38.2466C37.7735 37.7971 37.8421 37.3856 37.9792 37.0123C38.1163 36.639 38.3068 36.3152 38.5506 36.0409C38.8021 35.7666 39.0954 35.5533 39.4306 35.4009C39.7735 35.2485 40.1468 35.1723 40.5506 35.1723C41.0763 35.1723 41.5106 35.2828 41.8535 35.5037C42.204 35.7171 42.4821 35.9914 42.6878 36.3266C42.9011 36.6618 43.0459 37.0275 43.1221 37.4237C43.2059 37.8199 43.2401 38.1971 43.2249 38.5552H38.8021C38.7944 38.8142 38.8249 39.0618 38.8935 39.298C38.9621 39.5266 39.0725 39.7323 39.2249 39.9152C39.3773 40.0904 39.5716 40.2314 39.8078 40.338C40.044 40.4447 40.3221 40.498 40.6421 40.498C41.0535 40.498 41.3887 40.4028 41.6478 40.2123C41.9144 40.0218 42.0897 39.7323 42.1735 39.3437H43.1335ZM44.7119 38.3152C44.7119 38.5894 44.7462 38.8599 44.8147 39.1266C44.8909 39.3856 45.0014 39.618 45.1462 39.8237C45.2985 40.0294 45.489 40.1933 45.7176 40.3152C45.9538 40.4371 46.2281 40.498 46.5404 40.498C46.8681 40.498 47.1462 40.4333 47.3747 40.3037C47.6033 40.1742 47.79 40.0066 47.9347 39.8009C48.0795 39.5875 48.1823 39.3475 48.2433 39.0809C48.3119 38.8142 48.3462 38.5437 48.3462 38.2694C48.3462 37.9799 48.3119 37.7018 48.2433 37.4352C48.1747 37.1609 48.0643 36.9209 47.9119 36.7152C47.7671 36.5094 47.5766 36.3456 47.3404 36.2237C47.1043 36.0942 46.8185 36.0294 46.4833 36.0294C46.1557 36.0294 45.8776 36.0942 45.649 36.2237C45.4204 36.3533 45.2376 36.5247 45.1004 36.738C44.9633 36.9514 44.8643 37.1952 44.8033 37.4694C44.7423 37.7437 44.7119 38.0256 44.7119 38.3152ZM49.2833 41.218H48.3119V40.418H48.289C48.129 40.7456 47.8776 40.9818 47.5347 41.1266C47.1919 41.2714 46.8147 41.3437 46.4033 41.3437C45.9462 41.3437 45.5462 41.2599 45.2033 41.0923C44.8681 40.9247 44.5862 40.6999 44.3576 40.418C44.1366 40.1361 43.969 39.8085 43.8547 39.4352C43.7404 39.0618 43.6833 38.6656 43.6833 38.2466C43.6833 37.8275 43.7366 37.4314 43.8433 37.058C43.9576 36.6847 44.1252 36.3609 44.3462 36.0866C44.5747 35.8047 44.8566 35.5837 45.1919 35.4237C45.5347 35.2561 45.9309 35.1723 46.3804 35.1723C46.5328 35.1723 46.6966 35.1875 46.8719 35.218C47.0471 35.2485 47.2223 35.3018 47.3976 35.378C47.5728 35.4466 47.7366 35.5418 47.889 35.6637C48.049 35.778 48.1823 35.9228 48.289 36.098H48.3119V33.058H49.2833V41.218ZM53.5358 33.058H54.5072V36.1094H54.5301C54.6901 35.7818 54.9415 35.5456 55.2844 35.4009C55.6272 35.2485 56.0044 35.1723 56.4158 35.1723C56.8729 35.1723 57.2691 35.2561 57.6044 35.4237C57.9472 35.5914 58.2291 35.8199 58.4501 36.1094C58.6787 36.3914 58.8501 36.719 58.9644 37.0923C59.0787 37.4656 59.1358 37.8618 59.1358 38.2809C59.1358 38.6999 59.0787 39.0961 58.9644 39.4694C58.8577 39.8428 58.6901 40.1704 58.4615 40.4523C58.2406 40.7266 57.9587 40.9437 57.6158 41.1037C57.2806 41.2637 56.8882 41.3437 56.4387 41.3437C56.2939 41.3437 56.1301 41.3285 55.9472 41.298C55.772 41.2675 55.5968 41.218 55.4215 41.1494C55.2463 41.0809 55.0787 40.9894 54.9187 40.8752C54.7663 40.7533 54.6368 40.6047 54.5301 40.4294H54.5072V41.218H53.5358V33.058ZM58.1072 38.2123C58.1072 37.938 58.0691 37.6714 57.9929 37.4123C57.9244 37.1456 57.8139 36.9094 57.6615 36.7037C57.5168 36.498 57.3263 36.3342 57.0901 36.2123C56.8615 36.0904 56.591 36.0294 56.2787 36.0294C55.951 36.0294 55.6729 36.0942 55.4444 36.2237C55.2158 36.3533 55.0291 36.5247 54.8844 36.738C54.7396 36.9437 54.6329 37.1799 54.5644 37.4466C54.5034 37.7133 54.4729 37.9837 54.4729 38.258C54.4729 38.5475 54.5072 38.8294 54.5758 39.1037C54.6444 39.3704 54.751 39.6066 54.8958 39.8123C55.0482 40.018 55.2425 40.1856 55.4787 40.3152C55.7149 40.4371 56.0006 40.498 56.3358 40.498C56.671 40.498 56.9491 40.4333 57.1701 40.3037C57.3987 40.1742 57.5815 40.0028 57.7187 39.7894C57.8558 39.5761 57.9549 39.3323 58.0158 39.058C58.0768 38.7837 58.1072 38.5018 58.1072 38.2123ZM62.3675 42.0066C62.2532 42.2961 62.1389 42.5399 62.0246 42.738C61.918 42.9361 61.7961 43.0961 61.6589 43.218C61.5294 43.3475 61.3808 43.439 61.2132 43.4923C61.0532 43.5533 60.8665 43.5837 60.6532 43.5837C60.5389 43.5837 60.4246 43.5761 60.3104 43.5609C60.1961 43.5456 60.0856 43.519 59.9789 43.4809V42.5894C60.0627 42.6275 60.158 42.658 60.2646 42.6809C60.3789 42.7114 60.4742 42.7266 60.5504 42.7266C60.7484 42.7266 60.9123 42.6771 61.0418 42.578C61.1789 42.4866 61.2818 42.3533 61.3504 42.178L61.7504 41.1837L59.4075 35.3094H60.5046L62.2304 40.1437H62.2532L63.9104 35.3094H64.9389L62.3675 42.0066ZM73.3197 37.5037V35.5723C73.3197 34.9094 73.3083 34.6352 73.274 34.3266H75.0454C75.0226 34.5552 75.0112 34.7266 74.9997 35.1037H77.2169C77.8569 35.1037 78.234 35.0809 78.5083 35.0466V36.738C78.1197 36.7037 77.6969 36.6809 77.274 36.6809H74.9997V37.5037H76.9883C77.5026 37.5037 77.754 37.4923 78.0397 37.458C77.994 37.8809 77.9826 38.2123 77.9826 38.738V40.6809C77.9826 41.4237 78.0054 41.8352 78.0512 42.2466H76.234V41.8009H72.6912V42.2352H70.8969C70.9426 41.9037 70.9654 41.4123 70.9654 40.7837V38.4866C70.9654 38.0523 70.954 37.7437 70.9312 37.458C71.2283 37.4923 71.4797 37.5037 71.9712 37.5037H73.3197ZM72.6912 39.1037V40.2237H76.234V39.1037H72.6912ZM72.8054 32.4409V32.0752C72.8054 31.8237 72.794 31.6637 72.7597 31.4809H74.6454C74.6112 31.6523 74.5997 31.8123 74.5997 32.098V32.4409H77.1026C77.8226 32.4409 78.3597 32.418 78.714 32.3723V34.1323C78.2569 34.098 77.6397 34.0752 77.1369 34.0752H70.6912C70.6912 34.2923 70.6912 34.4637 70.6912 34.578C70.6912 38.5437 70.3254 40.6123 69.3426 42.2809C68.874 41.6409 68.5197 41.2752 67.9369 40.8523C68.714 39.458 68.9312 37.9609 68.9312 34.1552C68.9312 33.298 68.9197 32.7837 68.8969 32.3837C69.3426 32.418 69.834 32.4409 70.4054 32.4409H72.8054ZM81.2512 36.0066H80.714C80.3712 36.0066 80.2226 36.018 80.0397 36.0294V34.9894C79.9026 35.0923 79.8569 35.1266 79.6854 35.2409C79.4683 34.3837 79.3426 34.0294 79.1026 33.5037C79.914 33.0466 80.5997 32.3723 81.1026 31.538H82.794C83.1369 31.9837 83.5369 32.3609 84.154 32.7723V32.3952C84.4854 32.4409 84.7826 32.4523 85.3312 32.4523H86.2683V32.3609C86.2683 31.938 86.2569 31.7209 86.2112 31.4809H87.7654C87.7197 31.7209 87.7083 31.9266 87.7083 32.3609V32.4523H88.3026C88.2112 32.2809 88.2112 32.2809 87.9026 31.7552L88.9997 31.3437C89.2969 31.7666 89.4912 32.0752 89.674 32.4409C89.7997 32.4294 89.8454 32.418 89.994 32.4066V34.018C89.6854 33.9837 89.5026 33.9723 89.0683 33.9723H87.7083V34.4409H88.8512C89.4226 34.4409 89.6054 34.4409 89.834 34.418C89.8112 34.7266 89.7997 34.9552 89.7997 35.6523V41.0809C89.7997 41.8694 89.434 42.1437 88.4054 42.1437C88.3712 42.1437 88.2569 42.1437 88.0512 42.1323C88.0283 41.378 87.9712 41.1037 87.754 40.6352C87.9712 40.658 88.0512 40.658 88.1197 40.658C88.314 40.658 88.3483 40.6237 88.3483 40.4066V39.7894H87.7083V40.978C87.7083 41.5609 87.7197 41.7894 87.7426 42.0866H86.234C86.2569 41.8123 86.2683 41.5494 86.2683 41.0123V39.7894H85.6854V40.898C85.6854 41.6409 85.6969 41.8694 85.7197 42.2237H84.1997C84.2454 41.8237 84.2569 41.5266 84.2569 40.898V35.6409C84.2569 34.9209 84.2569 34.7266 84.2226 34.418C84.5197 34.4409 84.7254 34.4409 85.4226 34.4409H86.2683V33.9723H85.3312C84.8854 33.9723 84.5312 33.9837 84.2454 34.0066L83.9254 34.6352V36.0294C83.754 36.0066 83.6397 36.0066 83.2854 36.0066H82.794V36.4752H83.0683C83.5254 36.4752 83.7426 36.4637 83.9826 36.4409V37.9494C83.7197 37.9152 83.6397 37.9152 83.0683 37.9152H80.314C79.914 37.9152 79.6626 37.9266 79.3769 37.9609V36.4294C79.6397 36.4637 79.8912 36.4752 80.314 36.4752H81.2512V36.0066ZM80.714 34.6466H81.2512C81.2512 34.1323 81.2397 34.0409 81.2283 33.8694C80.9312 34.2009 80.7483 34.3837 80.4512 34.6466C80.5426 34.6466 80.5769 34.6466 80.714 34.6466ZM82.794 34.6466H83.274C83.6054 34.6466 83.7312 34.6466 83.8683 34.6237C83.3083 34.2466 83.1712 34.1437 82.8283 33.8352C82.8054 34.018 82.8054 34.1437 82.794 34.6466ZM81.3654 33.7094H82.6912C82.394 33.4237 82.2569 33.2523 81.9826 32.898C81.7312 33.2637 81.6169 33.4123 81.3654 33.7094ZM86.2683 38.418V37.8352H85.6854V38.418H86.2683ZM87.7083 38.418H88.3483V37.8352H87.7083V38.418ZM87.7083 35.8923V36.4637H88.3483V35.8923H87.7083ZM86.2683 35.8923H85.6854V36.4637H86.2683V35.8923ZM83.9026 42.1209H82.2683V41.8009H81.4912V42.2237H79.754C79.7883 41.9494 79.7997 41.7209 79.7997 41.2752V39.1723C79.7997 38.7952 79.7883 38.5552 79.754 38.2694C79.994 38.2923 80.2912 38.3037 80.714 38.3037H83.0226C83.4569 38.3037 83.674 38.2923 83.8912 38.2694C83.8797 38.4637 83.8683 38.6466 83.8683 39.0466V41.378C83.8683 41.7666 83.8797 41.9152 83.9026 42.1209ZM81.4797 39.6637V40.4066H82.2683V39.6637H81.4797ZM91.9483 32.2009H94.9083C94.9083 31.8923 94.8969 31.7323 94.8512 31.4923H96.7712C96.7369 31.7209 96.714 31.9152 96.714 32.1437V32.2009H99.9026C100.451 32.2009 100.76 32.1894 101.16 32.1323V33.7094C100.805 33.6637 100.508 33.6523 99.914 33.6523H91.8454C91.2626 33.6523 90.9769 33.6637 90.6226 33.7094V32.1323C91.0226 32.178 91.3654 32.2009 91.9483 32.2009ZM98.4969 40.5437V40.6352C98.7369 40.6466 98.8283 40.6466 98.9083 40.6466C99.114 40.6466 99.1712 40.6009 99.1712 40.4294V38.2237H92.5997V40.898C92.5997 41.5723 92.6112 41.8809 92.6569 42.258H90.8283C90.874 41.938 90.8969 41.458 90.8969 40.898V37.8809C90.8969 37.5266 90.8854 37.1837 90.8512 36.8409C91.2512 36.8752 91.594 36.8866 92.1083 36.8866H99.7654C100.314 36.8866 100.611 36.8752 100.92 36.8409C100.885 37.1609 100.874 37.458 100.874 37.8809V40.5437C100.874 41.4466 100.794 41.698 100.463 41.9152C100.188 42.098 99.6854 42.178 98.8969 42.178C98.6797 42.178 98.314 42.1666 98.0054 42.1552C97.994 41.7437 97.9712 41.5952 97.8912 41.2294H97.6854H94.874V41.6637H93.2054C93.2397 41.4237 93.2512 41.1837 93.2512 40.7494V39.1609C93.2512 38.8752 93.2397 38.6923 93.2169 38.498C93.4912 38.5209 93.7312 38.5323 94.1426 38.5323H97.674C98.1312 38.5323 98.314 38.5209 98.5312 38.498C98.5083 38.7037 98.4969 38.8752 98.4969 39.1837V40.5437ZM94.874 39.6409V40.0523H96.9654V39.6409H94.874ZM92.2112 35.8237V34.7037C92.2112 34.3609 92.1997 34.2009 92.1654 33.9266C92.5083 33.9494 92.7712 33.9609 93.3197 33.9609H98.554C99.0454 33.9609 99.3083 33.9494 99.6397 33.9266C99.6054 34.178 99.594 34.3609 99.594 34.7152V35.8237C99.594 36.2009 99.6054 36.3609 99.6397 36.6123C99.2854 36.5894 99.0226 36.578 98.5197 36.578H93.2969C92.8169 36.578 92.5312 36.5894 92.1654 36.6123C92.1997 36.338 92.2112 36.1666 92.2112 35.8237ZM93.8912 35.0466V35.5037H97.8912V35.0466H93.8912ZM105.034 33.7894V32.3266C104.737 33.2866 104.623 33.5723 104.245 34.418V40.9552C104.245 41.458 104.257 41.778 104.314 42.2694H102.497C102.554 41.7209 102.565 41.4809 102.565 40.9666V38.0409C102.565 37.9723 102.577 37.5837 102.588 36.8866C102.303 37.2752 102.12 37.5152 102.04 37.6066C101.903 36.8409 101.743 36.258 101.468 35.5152C102.108 34.818 102.565 34.0637 102.954 33.0237C103.205 32.3494 103.343 31.8694 103.4 31.3894L105.194 31.8009L105.08 32.178C105.377 32.2237 105.731 32.2352 106.337 32.2352H108.108C108.143 31.9266 108.143 31.858 108.165 31.458L109.948 31.5609C109.914 31.7437 109.914 31.7437 109.834 32.2352H111.114C111.708 32.2352 112.017 32.2237 112.428 32.1666V33.778C112.085 33.7552 111.765 33.7437 111.354 33.7437H109.56C109.514 33.9609 109.514 33.9723 109.468 34.1894H110.965C111.525 34.1894 111.674 34.1894 111.914 34.1666C111.868 34.5666 111.857 34.8523 111.857 35.298V38.898C111.857 39.3437 111.868 39.6066 111.903 39.9609C111.48 39.938 111.274 39.938 110.965 39.938H107.72C107.411 39.938 107.263 39.938 106.805 39.9609C106.828 39.5952 106.828 39.4237 106.828 39.0809V35.0466C106.828 34.5666 106.828 34.3837 106.805 34.178C107.023 34.1894 107.171 34.1894 107.697 34.1894H107.765C107.811 34.0409 107.823 33.9609 107.868 33.7437H106.12C105.617 33.7437 105.4 33.7552 105.034 33.7894ZM108.474 35.3437V35.778H110.223V35.3437H108.474ZM108.474 36.8294V37.2752H110.223V36.8294H108.474ZM108.474 38.3266V38.7723H110.223V38.3266H108.474ZM106.36 42.2694H104.668C104.714 41.8694 104.725 41.5152 104.725 40.8294V35.8237C104.725 35.1837 104.714 34.8409 104.668 34.4523H106.417C106.371 34.8294 106.36 35.1723 106.36 35.8352V40.3152H111.034C111.617 40.3152 111.96 40.3037 112.371 40.258V41.9037C111.925 41.858 111.571 41.8352 111.011 41.8352H106.36V42.2694ZM115.697 40.2923H115.274C114.76 40.2923 114.44 40.3037 114.04 40.338C114.074 39.9609 114.085 39.5952 114.085 38.9437V36.418C114.085 35.7894 114.074 35.3894 114.04 35.0466C114.383 35.0694 114.634 35.0809 115.16 35.0809H121.354C121.983 35.0809 122.257 35.0694 122.588 35.0466C122.554 35.3666 122.543 35.7552 122.543 36.418V39.0123C122.543 39.6866 122.554 40.0637 122.588 40.338C122.223 40.3037 121.914 40.2923 121.365 40.2923H120.748C121.64 40.6466 122.474 40.7952 123.823 40.8752C123.491 41.3552 123.343 41.6294 123.034 42.3952C121.96 42.2466 121.343 42.0866 120.531 41.7894C119.823 41.5266 119.411 41.3323 118.817 40.9552L119.583 40.2923H116.783L117.617 40.9552C117.034 41.3552 116.6 41.5723 115.788 41.8694C115.045 42.1323 114.52 42.2694 113.697 42.418C113.457 41.858 113.251 41.5037 112.828 40.9552C114.12 40.818 114.931 40.6352 115.697 40.2923ZM115.788 36.2694V36.6123H120.84V36.2694H115.788ZM115.788 37.5152V37.858H120.84V37.5152H115.788ZM115.788 38.7609V39.1152H120.84V38.7609H115.788ZM123.228 32.818V33.7894C123.228 34.3037 123.24 34.5437 123.285 34.818C123.023 34.7952 122.725 34.7837 122.143 34.7837H114.463C113.891 34.7837 113.56 34.7952 113.32 34.818C113.365 34.498 113.377 34.2923 113.377 33.7894V32.818C113.377 32.2923 113.365 32.0866 113.32 31.7209C113.628 31.7552 113.948 31.7666 114.623 31.7666H121.983C122.657 31.7666 122.988 31.7552 123.285 31.7209C123.24 32.0523 123.228 32.2694 123.228 32.818ZM116.131 33.538V33.0352H115.023V33.538H116.131ZM118.794 33.538V33.0352H117.697V33.538H118.794ZM120.36 33.538H121.514V33.0352H120.36V33.538ZM129.263 40.898V40.9666C129.263 41.6294 129.274 41.9266 129.32 42.258H127.525C127.571 41.8466 127.594 41.4923 127.594 40.9894V40.1894C126.6 40.498 125.64 40.7609 125.263 40.8523C124.988 40.9094 124.783 40.9666 124.6 41.0466L124.177 39.2523C124.44 39.2294 124.52 39.218 124.908 39.1609V33.4009C124.623 33.4123 124.543 33.4123 124.303 33.4352V31.7437C124.657 31.7894 125.023 31.8123 125.468 31.8123H128.817C129.343 31.8123 129.617 31.8009 129.994 31.7437V32.3609C130.314 32.3952 130.463 32.3952 130.817 32.3952H133.651C133.96 32.3952 134.314 32.3723 134.645 32.3266C134.623 32.6466 134.611 32.7837 134.588 33.1266C134.463 35.298 133.994 37.1037 133.16 38.738C133.788 39.5152 134.188 39.858 135.091 40.418C134.668 41.0237 134.394 41.5152 134.097 42.2123C133.205 41.5723 132.748 41.1494 132.108 40.3723C131.434 41.2066 131.034 41.5723 129.994 42.3152C129.765 41.7552 129.525 41.3094 129.263 40.898ZM129.263 33.3894V40.4637C129.971 40.0409 130.554 39.5037 131.057 38.8409C130.417 37.6637 130.051 36.5666 129.628 34.578L131.08 34.0294H130.771C130.188 34.0294 129.88 34.0409 129.605 34.0866V33.4009C129.514 33.3894 129.4 33.3894 129.263 33.3894ZM132.771 34.0294H131.183C131.48 35.538 131.663 36.1437 132.074 37.0237C132.485 35.938 132.634 35.2866 132.771 34.0294ZM126.6 33.3894V34.2237H127.594V33.3894H126.6ZM126.6 35.618V36.4294H127.594V35.618H126.6ZM126.6 37.8694V38.8523C126.908 38.7837 127.228 38.7037 127.594 38.6237V37.8694H126.6ZM137.88 34.4294V33.3552C137.88 32.7609 137.857 32.3037 137.8 31.938H139.994C139.925 32.3152 139.903 32.6352 139.903 33.3094V34.2237L143.891 33.7894C144.348 33.7437 144.474 33.7094 144.703 33.6066L145.845 34.658C145.663 34.8523 145.663 34.8523 145.468 35.2866C145.137 35.9837 144.691 36.738 144.234 37.3094C143.8 37.8694 143.388 38.258 142.588 38.8752C142.04 38.2809 141.628 37.9494 140.988 37.5837C141.457 37.3094 141.788 37.0809 142.188 36.7037C142.554 36.3723 142.748 36.1209 143.023 35.6523L139.891 36.018V38.4637C139.891 39.298 139.914 39.4809 140.074 39.6066C140.2 39.7323 140.611 39.7894 141.285 39.7894C142.68 39.7894 143.971 39.618 144.965 39.3094L145.034 41.4466C144.954 41.4466 144.885 41.4466 144.851 41.4466C144.565 41.458 144.554 41.4694 144.314 41.4923C143.217 41.5952 141.925 41.6752 141.263 41.6752C140.268 41.6752 139.514 41.6066 139.068 41.4694C138.565 41.3094 138.154 40.8866 138.005 40.3837C137.891 39.9837 137.88 39.8237 137.88 38.7266V36.2352L137.194 36.3152C136.28 36.418 136.131 36.4409 135.685 36.5552L135.491 34.5894C135.708 34.6009 135.857 34.6123 135.914 34.6123C136.074 34.6123 136.611 34.5666 136.988 34.5323L137.88 34.4294ZM147.194 33.9837L148.508 32.3723C149.948 33.218 150.691 33.7437 151.651 34.6123L150.303 36.3952C149.308 35.3552 148.337 34.6009 147.194 33.9837ZM147.903 41.6637L147.308 39.4694C148.474 39.378 149.674 39.0923 150.748 38.6466C152.188 38.0523 153.217 37.1952 154.097 35.8237C154.577 35.0923 154.885 34.4637 155.217 33.5837C155.777 34.258 156.04 34.4866 156.897 35.1152C155.857 37.3666 154.771 38.7152 153.171 39.7437C151.937 40.5437 150.851 40.9666 148.725 41.458C148.28 41.5609 148.211 41.5723 147.903 41.6637ZM161.388 31.5037L163.434 31.9037C163.423 31.9266 163.263 32.2466 162.943 32.898L166.017 32.8637C166.348 32.8637 166.497 32.8294 166.714 32.7152L167.731 33.7209C167.594 33.8694 167.56 33.938 167.468 34.2123C166.794 36.2466 166.188 37.4809 165.343 38.6237C164.611 39.6066 163.674 40.4752 162.565 41.2066C161.948 41.6066 161.48 41.858 160.6 42.258C160.177 41.5152 159.903 41.1609 159.263 40.5437C161 39.9266 162.108 39.2523 163.137 38.2009C162.428 37.618 161.868 37.2523 161.011 36.7837L162.211 35.3437C163.228 35.8923 163.594 36.1209 164.314 36.6466C164.783 35.9266 165.057 35.3094 165.297 34.5552L162.131 34.578C161.468 35.7209 160.68 36.658 159.525 37.6752C158.977 37.0809 158.623 36.7952 157.88 36.3837C159.228 35.3209 160.051 34.3723 160.725 33.1037C161.045 32.5209 161.24 32.0294 161.388 31.5037ZM169.194 37.9609V35.7552C169.731 35.8352 170.348 35.858 171.537 35.858H177C178.143 35.858 178.577 35.8352 179.343 35.7552V37.9609C178.794 37.9037 178.291 37.8923 176.988 37.8923H171.548C170.268 37.8923 169.891 37.9037 169.194 37.9609Z"
        fill="white" />
    <path
        d="M163.414 11.429V20.9516H170.726V22.8464H154.231V20.9516H161.373V11.429H155.227V9.48566H169.706V11.429H163.414Z"
        fill="white" />
    <path
        d="M132.587 5.16132H151.244C150.685 12.8863 148.474 21.097 135.769 23.7935L134.871 21.7529C144.709 19.761 147.94 14.6839 148.742 7.32333H132.587V5.16132Z"
        fill="white" />
    <path
        d="M119.484 16.3337L117.735 16.7709C117.385 14.6721 116.751 13.0323 115.986 11.4363L117.625 10.9772C118.675 12.9886 119.199 15.0875 119.484 16.3337ZM124.272 15.3498L122.523 15.7652C122.217 13.9724 121.779 12.2015 121.08 10.5399L122.698 10.1683C123.332 11.6112 123.987 13.9287 124.272 15.3498ZM118.828 24.1388L117.603 22.6521C124.381 21.2528 127.442 18.2795 128.688 10.4306L130.59 10.8242C129.147 18.3013 126.349 22.346 118.828 24.1388Z"
        fill="white" />
    <path
        d="M109.034 21.0786H113.297V22.8058H97.7964V21.0786H107.11C107.853 17.4712 108.072 15.2193 108.225 12.6394H99.9171V10.8685H110.193C110.062 14.6071 109.602 18.2801 109.034 21.0786Z"
        fill="white" />
    <path
        d="M79.0227 4.26309V11.7937C83.3468 10.7977 86.6991 9.65598 90.3429 7.78547L91.3389 9.82602C86.0189 12.2552 81.5734 13.3727 79.0227 13.9071V19.2757C79.0227 21.0248 79.46 21.2191 82.2293 21.2191H88.4724C90.4158 21.2191 92.3592 21.1219 93.9139 20.8304L94.0353 23.0167C92.5535 23.2596 90.2458 23.3325 88.7153 23.3325H81.9135C78.294 23.3325 76.7878 22.7252 76.7878 19.6401V4.26309H79.0227ZM89.5899 3.53432L91.1446 2.6598C92.2377 4.19022 92.845 5.42912 93.6224 7.22675L91.9705 8.19844C91.2417 6.27935 90.683 5.21049 89.5899 3.53432ZM93.3066 2.39259L94.8613 1.51807C95.9301 2.9756 96.6103 4.38455 97.3148 6.1093L95.6629 7.0567C94.9342 5.11332 94.5212 4.2388 93.3066 2.39259Z"
        fill="white" />
    <path
        d="M70.375 10.1425L70.8608 13.4219C68.6259 13.8835 67.2413 13.9807 65.3222 14.1507C65.8323 15.0495 66.3182 15.8269 67.2656 16.8471L63.8161 18.9363C62.3585 17.4059 61.5569 15.4625 61.071 14.2965H50.6011V11.1142H60.0265C59.8321 10.434 59.7107 9.92384 59.5649 9.21937H51.4513V5.93991H59.0548C58.9333 4.79817 58.9333 4.45808 58.8604 3.38922L62.8687 3.29205C62.893 4.06941 62.9173 4.4095 63.0144 5.81845C66.221 5.62411 67.8486 5.25973 68.6016 5.06539L68.9903 8.41772C67.387 8.75781 65.2007 8.97644 63.5246 9.07361C63.7189 9.94814 63.8161 10.3611 64.0104 11.017C67.3384 10.8227 69.2089 10.4097 70.375 10.1425ZM54.1235 15.8026L57.2572 17.1629C56.6498 17.8917 56.3826 18.4018 56.3826 18.8877C56.3826 20.2481 58.3746 20.6124 61.8241 20.6124C64.8363 20.6124 66.9498 20.4424 68.3344 20.3209L68.5045 24.0619C67.3384 24.1591 66.2453 24.232 63.0387 24.232C58.1074 24.232 56.4798 23.8433 55.1194 23.236C53.419 22.4587 52.4473 20.9039 52.4473 19.495C52.4473 18.2075 53.0303 17.0658 54.1235 15.8026Z"
        fill="white" />
    <path
        d="M33.7909 25.446L31.5317 22.8224C31.5317 25.276 30.2199 25.3731 29.1753 25.3731H25.8959L25.2643 21.6321H27.3534C27.815 21.6321 27.9364 21.5592 27.9364 20.9762V17.6239C26.8676 17.9154 26.1388 18.0854 25.2886 18.3041L24.8513 14.6602C25.6287 14.5145 26.5275 14.3444 27.9364 14.0043V9.70461H25.0942V6.30369H27.9364V2.39264H31.5317V6.30369H33.1593V5.16196H35.9772C36.0015 4.38461 35.9772 3.70442 35.9529 2.39264H39.6696C39.6696 3.34004 39.6696 3.80159 39.6453 5.16196H48.0747V8.63575H39.4996C39.4267 9.70461 39.3781 10.1662 39.3538 10.5063H47.0059V13.7857C46.7629 15.0003 46.3014 17.1623 44.5281 19.8102C46.1313 21.1706 47.4674 21.8022 48.4391 22.2151L46.5686 25.5189C44.9896 24.6444 43.5807 23.7698 42.2446 22.5309C40.2769 24.3771 38.6007 25.0816 37.6533 25.4703L35.7828 22.6038C34.884 24.0856 34.3739 24.7415 33.7909 25.446ZM35.9043 8.63575H33.4751V9.70461H31.5317V13.0327C32.4305 12.7654 32.8192 12.644 33.6451 12.3768L33.7423 15.7534C33.1593 15.9963 32.6977 16.1664 31.5317 16.5793V22.2151C35.2484 17.2352 35.6128 13.3485 35.9043 8.63575ZM43.6292 13.7857H38.9408C38.9165 13.9558 38.8194 14.5874 38.6979 15.2675L40.8113 14.3687C41.0786 15.1461 41.3701 15.9963 42.1717 17.2109C43.192 15.6562 43.4349 14.5874 43.6292 13.7857ZM38.4307 16.385C38.1149 17.5753 37.5076 19.5673 36.0501 22.1908C36.7059 21.9479 38.3335 21.3163 39.9854 19.8102C39.1109 18.4255 38.6979 17.2352 38.4307 16.385Z"
        fill="white" />
    <path
        d="M2.93936 25.3729L0 22.4335C0.825937 20.9274 1.99197 18.5467 1.99197 11.5506V3.02399H22.4703V10.3603H15.79V11.7692H23.3449V14.9029H15.79V16.4819H21.863V25.0571H6.24311V16.4819H12.1704V14.9029H5.51434C5.32001 21.2432 3.52238 24.3283 2.93936 25.3729ZM5.53864 10.3603V11.7692H12.1704V10.3603H5.53864ZM18.8751 7.56664V6.03623H5.56293V7.56664H18.8751ZM18.2678 22.0205V19.3484H9.78978V22.0205H18.2678Z"
        fill="white" />
    <path
        d="M211.573 0.768066H188.591V27.0181H211.573V25.3614V10.5745V7.60068V0.768066ZM200.904 2.42477H204.59V7.61097C204.59 8.12548 204.385 8.57824 204.046 8.91781C203.707 9.25738 203.255 9.46319 202.742 9.46319C202.228 9.46319 201.777 9.25738 201.438 8.91781C201.099 8.57824 200.894 8.12548 200.894 7.61097V2.42477H200.904ZM195.564 2.42477H199.25V7.61097C199.25 8.12548 199.045 8.57824 198.706 8.91781C198.367 9.25738 197.916 9.46319 197.402 9.46319C196.889 9.46319 196.437 9.25738 196.098 8.91781C195.759 8.57824 195.554 8.12548 195.554 7.61097V2.42477H195.564ZM190.234 2.42477H193.921V7.61097C193.921 8.12548 193.716 8.57824 193.377 8.91781C193.038 9.25738 192.586 9.46319 192.072 9.46319C191.559 9.46319 191.107 9.25738 190.768 8.91781C190.429 8.57824 190.224 8.12548 190.224 7.61097V2.42477H190.234ZM209.92 25.3717H204.59V17.9834C204.59 15.4932 202.567 13.466 200.082 13.466C197.597 13.466 195.574 15.4932 195.574 17.9834V25.3717H190.245V10.5848C190.779 10.9141 191.405 11.1199 192.083 11.1199C193.151 11.1199 194.106 10.6363 194.753 9.87479C195.389 10.6363 196.344 11.1199 197.423 11.1199C198.491 11.1199 199.446 10.6363 200.093 9.87479C200.729 10.6363 201.694 11.1199 202.762 11.1199C203.83 11.1199 204.785 10.6363 205.432 9.87479C206.069 10.6363 207.024 11.1199 208.102 11.1199C208.78 11.1199 209.406 10.9244 209.94 10.5951V25.3819L209.92 25.3717ZM209.92 7.61097C209.92 8.12548 209.715 8.57824 209.376 8.91781C209.037 9.25738 208.585 9.46319 208.072 9.46319C207.558 9.46319 207.106 9.25738 206.767 8.91781C206.428 8.57824 206.223 8.12548 206.223 7.61097V2.42477H209.91V7.61097H209.92Z"
        fill="white" />
    <path
        d="M184.77 1.99259V7.61097C184.77 7.97113 184.483 8.25925 184.123 8.25925H183.949C183.589 8.25925 183.302 7.97113 183.302 7.61097V1.97201C183.302 1.0459 182.686 0.768066 182.08 0.768066C181.474 0.768066 180.868 1.0459 180.868 1.97201V7.61097C180.868 7.97113 180.58 8.25925 180.221 8.25925H180.046C179.687 8.25925 179.4 7.97113 179.4 7.61097V1.99259C179.4 0.335883 177.048 0.387333 177.048 2.01317V7.3743C177.038 10.3481 177.746 11.1199 178.917 12.0563C179.862 12.8075 180.673 13.2294 180.673 15.0816V25.6804C180.673 26.411 181.268 27.0078 181.998 27.0078H182.182C182.912 27.0078 183.507 26.411 183.507 25.6804V15.0816C183.507 13.2294 184.318 12.7972 185.263 12.0563C186.434 11.1302 187.142 10.3584 187.132 7.3743V2.01317C187.132 0.397623 184.78 0.335883 184.78 1.99259H184.77Z"
        fill="white" />
    <path
        d="M218.269 0.768066C215.373 0.768066 213.031 3.66987 213.031 6.94212C213.031 8.93839 213.966 10.698 215.106 11.7887C216.112 12.7457 216.728 13.4866 216.852 15.0919V25.6804C216.852 26.411 217.447 27.0078 218.176 27.0078H218.361C219.09 27.0078 219.686 26.411 219.686 25.6804V15.0919C219.809 13.4866 220.425 12.7457 221.431 11.7887C222.571 10.698 223.506 8.93839 223.506 6.94212C223.506 3.66987 221.154 0.768066 218.269 0.768066Z"
        fill="white" />
</svg>