<svg width="26" height="26" viewBox="0 0 26 26" fill="none" xmlns="http://www.w3.org/2000/svg">
    <path
        d="M20.8716 12.195V21.1073C20.8716 21.6608 20.6517 22.1917 20.2603 22.5831C19.8689 22.9745 19.338 23.1944 18.7844 23.1944H15.6537C15.1001 23.1944 14.5692 22.9745 14.1778 22.5831C13.7864 22.1917 13.5665 21.6608 13.5665 21.1073V16.9329H11.4793V21.1073C11.4793 21.6608 11.2594 22.1917 10.868 22.5831C10.4766 22.9745 9.94569 23.1944 9.39213 23.1944H6.26137C5.70782 23.1944 5.17693 22.9745 4.78551 22.5831C4.39409 22.1917 4.17419 21.6608 4.17419 21.1073V12.195C3.54024 11.829 3.01368 11.3027 2.64734 10.6689C2.281 10.0352 2.08777 9.31621 2.08702 8.58419V7.5406C2.08475 7.37807 2.12049 7.21726 2.19137 7.07099L4.27855 2.89663C4.36607 2.72294 4.50038 2.57716 4.66634 2.47575C4.8323 2.37433 5.02329 2.3213 5.21778 2.32266H19.828C20.0225 2.3213 20.2135 2.37433 20.3795 2.47575C20.5454 2.57716 20.6797 2.72294 20.7673 2.89663L22.8544 7.07099C22.917 7.21709 22.9588 7.38406 22.9588 7.5406V8.58419C22.958 9.31621 22.7648 10.0352 22.3985 10.6689C22.0321 11.3027 21.5056 11.829 20.8716 12.195ZM18.7844 12.7585C17.5321 12.7585 16.4155 12.2159 15.6537 11.3497C15.2629 11.7954 14.7814 12.1525 14.2415 12.3971C13.7016 12.6418 13.1157 12.7683 12.5229 12.7683C11.9301 12.7683 11.3442 12.6418 10.8043 12.3971C10.2644 12.1525 9.78294 11.7954 9.39213 11.3497C9.00043 11.7936 8.51857 12.1489 7.97871 12.3918C7.43884 12.6347 6.85338 12.7598 6.26137 12.7585V21.1073H9.39213V16.9329C9.39213 15.7849 10.3314 14.8457 11.4793 14.8457H13.5665C14.12 14.8457 14.6509 15.0656 15.0423 15.457C15.4338 15.8485 15.6537 16.3793 15.6537 16.9329V21.1073H18.7844V12.7585ZM20.8716 8.58419H16.6973C16.6973 9.13774 16.9172 9.66862 17.3086 10.06C17.7 10.4515 18.2309 10.6714 18.7844 10.6714C19.338 10.6714 19.8689 10.4515 20.2603 10.06C20.6517 9.66862 20.8716 9.13774 20.8716 8.58419ZM14.6101 8.58419H10.4357C10.4357 9.13774 10.6556 9.66862 11.047 10.06C11.4385 10.4515 11.9693 10.6714 12.5229 10.6714C13.0765 10.6714 13.6073 10.4515 13.9988 10.06C14.3902 9.66862 14.6101 9.13774 14.6101 8.58419ZM8.34855 8.58419H4.17419C4.17419 9.13774 4.39409 9.66862 4.78551 10.06C5.17693 10.4515 5.70782 10.6714 6.26137 10.6714C6.81492 10.6714 7.3458 10.4515 7.73723 10.06C8.12865 9.66862 8.34855 9.13774 8.34855 8.58419ZM20.2246 6.49701L19.181 4.40983H5.86481L4.82122 6.49701H20.2246Z"
        fill="white" />
</svg>