<svg width="141" height="28" viewBox="0 0 141 28" fill="none" xmlns="http://www.w3.org/2000/svg">
    <path
        d="M133.717 0H119.689V16H133.717V14.9902V5.97726V4.16464V0ZM127.205 1.0098H129.455V4.17091C129.455 4.48452 129.329 4.76049 129.123 4.96746C128.916 5.17444 128.64 5.29988 128.327 5.29988C128.013 5.29988 127.737 5.17444 127.531 4.96746C127.324 4.76049 127.198 4.48452 127.198 4.17091V1.0098H127.205ZM123.945 1.0098H126.195V4.17091C126.195 4.48452 126.07 4.76049 125.863 4.96746C125.656 5.17444 125.381 5.29988 125.067 5.29988C124.754 5.29988 124.478 5.17444 124.271 4.96746C124.064 4.76049 123.939 4.48452 123.939 4.17091V1.0098H123.945ZM120.692 1.0098H122.942V4.17091C122.942 4.48452 122.817 4.76049 122.61 4.96746C122.403 5.17444 122.127 5.29988 121.814 5.29988C121.501 5.29988 121.225 5.17444 121.018 4.96746C120.811 4.76049 120.686 4.48452 120.686 4.17091V1.0098H120.692ZM132.708 14.9965H129.455V10.4931C129.455 8.9753 128.22 7.73971 126.703 7.73971C125.186 7.73971 123.951 8.9753 123.951 10.4931V14.9965H120.698V5.98354C121.024 6.18424 121.407 6.30968 121.82 6.30968C122.472 6.30968 123.055 6.0149 123.45 5.55076C123.839 6.0149 124.422 6.30968 125.08 6.30968C125.732 6.30968 126.315 6.0149 126.709 5.55076C127.098 6.0149 127.687 6.30968 128.339 6.30968C128.991 6.30968 129.574 6.0149 129.969 5.55076C130.357 6.0149 130.94 6.30968 131.599 6.30968C132.012 6.30968 132.395 6.19051 132.721 5.98981V15.0027L132.708 14.9965ZM132.708 4.17091C132.708 4.48452 132.583 4.76049 132.376 4.96746C132.169 5.17444 131.893 5.29988 131.58 5.29988C131.266 5.29988 130.991 5.17444 130.784 4.96746C130.577 4.76049 130.451 4.48452 130.451 4.17091V1.0098H132.702V4.17091H132.708Z"
        fill="#4B4B4B" />
    <path
        d="M117.357 0.746374V4.17091C117.357 4.39044 117.181 4.56605 116.962 4.56605H116.856C116.636 4.56605 116.461 4.39044 116.461 4.17091V0.73383C116.461 0.169345 116.085 0 115.715 0C115.345 0 114.975 0.169345 114.975 0.73383V4.17091C114.975 4.39044 114.8 4.56605 114.58 4.56605H114.474C114.254 4.56605 114.079 4.39044 114.079 4.17091V0.746374C114.079 -0.263426 112.643 -0.232066 112.643 0.758918V4.02666C112.637 5.83928 113.07 6.30968 113.784 6.88044C114.361 7.3383 114.856 7.59545 114.856 8.72442V15.1846C114.856 15.6299 115.22 15.9937 115.665 15.9937H115.777C116.222 15.9937 116.586 15.6299 116.586 15.1846V8.72442C116.586 7.59545 117.081 7.33203 117.658 6.88044C118.372 6.31595 118.805 5.84555 118.799 4.02666V0.758918C118.799 -0.225794 117.363 -0.263426 117.363 0.746374H117.357Z"
        fill="#4B4B4B" />
    <path
        d="M137.803 0C136.036 0 134.607 1.76872 134.607 3.76323C134.607 4.98001 135.177 6.05253 135.873 6.71737C136.487 7.30067 136.863 7.75225 136.938 8.73069V15.1846C136.938 15.6299 137.302 15.9937 137.747 15.9937H137.86C138.305 15.9937 138.668 15.6299 138.668 15.1846V8.73069C138.744 7.75225 139.12 7.30067 139.734 6.71737C140.43 6.05253 141 4.98001 141 3.76323C141 1.76872 139.565 0 137.803 0Z"
        fill="#4B4B4B" />
    <path
        d="M2.92718 8.39623C2.89584 10.5287 2.5511 12.8368 1.39778 14.8314L0 13.3574C0.344743 12.7239 1.18466 11.2375 1.18466 7.57459V1.69141H13.1504V5.77451H9.01347V6.84076H13.796V8.39623H9.01347V9.53774H12.8182V14.8753H11.0569V14.2543H5.33412V14.8753H3.5916V9.53774H7.26468V8.39623H2.92718ZM7.26468 6.83449V5.76824H2.92718V6.83449H7.26468ZM2.93972 3.19043V4.34448H11.3577V3.19043H2.93972ZM5.33412 10.974V12.749H11.0569V10.974H5.33412Z"
        fill="#4B4B4B" />
    <path
        d="M18.9422 13.5007C21.1925 10.8163 21.6814 8.26358 21.8255 4.78887H20.1269V5.35335H18.8419V7.83708C19.0425 7.76182 20.083 7.43567 20.3149 7.36041L20.4027 9.00368C19.9702 9.19185 19.6944 9.30474 18.8482 9.59326V13.5007C18.8482 14.6548 18.259 14.8555 17.5069 14.8555H15.664L15.3757 13.0241H16.7735C17.0744 13.0241 17.137 12.9488 17.137 12.6477V10.1389C16.1153 10.44 15.8834 10.4964 15.4071 10.6281L15.1626 8.82807C15.6515 8.71517 16.2407 8.58346 17.137 8.33885V5.35335H15.2942V3.71007H17.137V1.28906H18.8545V3.71007H20.0517V3.08914H21.8945C21.907 2.35531 21.907 1.84727 21.907 1.28906H23.637C23.637 1.9539 23.637 2.33022 23.6245 3.08914H28.9022V4.78887H23.5681C23.5367 5.20909 23.4991 5.76731 23.4678 6.17499H28.2252V7.79318C28.0497 8.57091 27.7175 10.0135 26.5517 11.6442C27.5734 12.5976 28.4822 13.0742 29.0902 13.3753L28.1375 14.9308C27.3728 14.4855 26.3762 13.8771 25.4548 12.9237C24.3328 14.0213 23.2923 14.5544 22.6279 14.8869L21.5874 13.3565C22.164 13.1119 23.2171 12.6666 24.3704 11.5376C23.6809 10.4588 23.3612 9.54935 23.1481 8.85315L24.5145 8.28867C24.69 8.80925 24.8718 9.39882 25.4234 10.2644C26.1568 9.19812 26.42 8.33257 26.5642 7.78063H23.2609C22.7595 11.3557 21.4307 13.4067 20.2335 14.8743L18.9485 13.4882L18.9422 13.5007Z"
        fill="#4B4B4B" />
    <path
        d="M38.1033 1.72852C38.1346 2.3369 38.1472 2.76968 38.2161 3.37179C39.5575 3.28398 40.7108 3.11464 41.7325 2.83867L42.165 4.4694C40.8362 4.80182 39.4697 4.94608 38.4731 4.98998C38.5608 5.4353 38.6737 5.88688 38.8366 6.43255C40.3786 6.34474 41.3 6.25693 42.8419 5.86807L43.1428 7.51134C41.4692 7.91276 39.7706 8.01311 39.4384 8.03192C39.7831 8.85356 40.1592 9.41805 40.7045 10.0641L38.9745 10.9861C38.3979 10.3338 37.934 9.49958 37.4451 8.13228H30.9326V6.51409H36.4799C36.6679 6.51409 36.7556 6.50154 36.9249 6.50154C36.7494 5.88061 36.6366 5.42275 36.5801 5.09033H31.4341V3.44706H36.3043C36.2166 2.81358 36.1727 2.26164 36.1476 1.77242L38.0907 1.72852H38.1033ZM34.9881 9.80691C34.6558 10.0641 33.9789 10.616 33.9789 11.2934C33.9789 12.2028 34.9881 12.3157 35.6337 12.4035C36.3231 12.4914 37.1881 12.5039 38.1722 12.5039C39.758 12.5039 40.7985 12.4474 41.6447 12.3157V14.1472C40.855 14.2162 39.99 14.2789 38.8492 14.2789C35.8217 14.2789 34.6684 14.0343 33.9037 13.7771C32.9384 13.4447 32.0734 12.6356 32.0734 11.5255C32.0734 10.1142 33.1829 9.21734 33.6592 8.81593L34.9881 9.81319V9.80691Z"
        fill="#4B4B4B" />
    <path
        d="M48.2513 2.22478V6.32043C51.1033 5.71204 52.9649 4.83396 54.7074 3.91196L54.9519 4.50154L55.1963 4.41373L55.9735 5.58033C53.1655 6.96645 50.5956 7.73164 48.245 8.22086V11.1185C48.245 11.7708 48.4769 11.9151 49.3231 11.9151H53.8487C54.814 11.9151 55.9109 11.7834 56.8197 11.6391L56.9075 13.6587C56.475 13.7152 55.6539 13.8343 53.9552 13.8343H48.9847C46.8535 13.8343 46.2581 13.0441 46.2581 11.7144V2.22478H48.245H48.2513ZM55.2966 4.0374C54.908 2.85199 54.6886 2.36277 54.3877 1.74183L55.5285 1.39687C55.9923 2.23105 56.2932 3.0276 56.4813 3.62972L55.2966 4.03113V4.0374ZM57.2898 3.70499C57.1143 3.20322 56.826 2.33768 56.3684 1.44078L57.4779 1.06445C57.9104 1.8171 58.2865 2.85199 58.4118 3.27221L57.2898 3.70499Z"
        fill="#4B4B4B" />
    <path
        d="M68.2595 5.25391C68.2281 6.58358 67.7831 11.3566 67.7142 11.9148H70.1336V13.602H59.8164V11.9148H65.8275C66.003 10.9615 66.2474 7.85053 66.2725 7.04144H60.9948V5.25391H68.2595Z"
        fill="#4B4B4B" />
    <path
        d="M73.0605 9.3185C72.8724 8.27734 72.5402 7.09819 71.9385 5.81242L73.493 5.36711C74.3266 7.02293 74.6149 8.28361 74.7466 8.89827L73.0605 9.3185ZM73.0605 12.9124C77.9182 11.8587 79.2282 9.98334 80.1935 4.95315L82.0551 5.32948C81.2779 8.50313 80.7263 10.6482 78.382 12.442C76.5392 13.8406 74.6902 14.2734 73.8878 14.4616L73.0667 12.9187L73.0605 12.9124ZM76.207 8.68502C75.9312 6.82222 75.4549 5.71207 75.2417 5.19776L76.815 4.83398C77.4606 6.10094 77.749 7.48706 77.8681 8.28361L76.2133 8.68502H76.207Z"
        fill="#4B4B4B" />
    <path
        d="M95.5816 2.68401C95.3246 6.34688 94.4721 12.5499 86.0228 14.1493L85.2017 12.3304C91.99 11.2203 92.855 7.25633 93.3 4.54053H84.0483V2.67773H95.5816V2.68401Z"
        fill="#4B4B4B" />
    <path
        d="M107.385 5.25391V6.89718H103.869V11.9713H107.962V13.6271H98.0142V11.9713H102.082V6.89718H98.5658V5.25391H107.385Z"
        fill="#4B4B4B" />
    <path
        d="M1.25219 23.3074H2.59848C2.98933 23.3123 3.27403 23.2326 3.45257 23.0686C3.63594 22.9045 3.72762 22.6681 3.72762 22.3592C3.72762 22.0504 3.63594 21.8164 3.45257 21.6571C3.27403 21.4931 2.98933 21.411 2.59848 21.411H1.25219V23.3074ZM0.564571 20.832H2.8301C3.35124 20.832 3.74451 20.9671 4.0099 21.2373C4.28013 21.5027 4.41524 21.8767 4.41524 22.3592C4.41524 22.8418 4.28013 23.2182 4.0099 23.4884C3.74451 23.7586 3.35124 23.8913 2.8301 23.8865H1.25219V26H0.564571V20.832ZM4.99021 22.2579H5.56926V23.0469H5.58374C5.73332 22.7429 5.91669 22.5185 6.13383 22.3737C6.35098 22.229 6.62602 22.1614 6.95898 22.171V22.8225C6.71288 22.8225 6.50298 22.8563 6.32926 22.9238C6.15555 22.9914 6.01561 23.0903 5.90945 23.2206C5.80329 23.3509 5.72609 23.5101 5.67783 23.6983C5.62958 23.8817 5.60545 24.094 5.60545 24.3352V26H4.99021V22.2579ZM9.74875 23.7707C9.7391 23.6259 9.70532 23.4884 9.64742 23.3581C9.59434 23.2278 9.51955 23.1168 9.42304 23.0251C9.33136 22.9286 9.22037 22.8538 9.09009 22.8008C8.96463 22.7429 8.82469 22.7139 8.67028 22.7139C8.51104 22.7139 8.36628 22.7429 8.23599 22.8008C8.11053 22.8538 8.00196 22.9286 7.91028 23.0251C7.81859 23.1217 7.74621 23.235 7.69313 23.3653C7.64005 23.4908 7.60869 23.6259 7.59904 23.7707H9.74875ZM10.3423 24.813C10.2602 25.2328 10.0793 25.5488 9.79942 25.7611C9.51955 25.9735 9.16729 26.0796 8.74266 26.0796C8.44348 26.0796 8.18291 26.0314 7.96094 25.9349C7.7438 25.8383 7.56043 25.7032 7.41085 25.5295C7.26126 25.3558 7.14786 25.1483 7.07066 24.907C6.99828 24.6658 6.95726 24.4028 6.94761 24.1181C6.94761 23.8334 6.99104 23.5728 7.0779 23.3364C7.16475 23.0999 7.28539 22.8949 7.4398 22.7211C7.59904 22.5474 7.78482 22.4123 7.99713 22.3158C8.21428 22.2193 8.45072 22.171 8.70647 22.171C9.03942 22.171 9.31447 22.241 9.53161 22.381C9.75358 22.5161 9.9297 22.6898 10.06 22.9021C10.1951 23.1144 10.2868 23.346 10.335 23.597C10.3881 23.8479 10.4098 24.0867 10.4002 24.3135H7.59904C7.59421 24.4776 7.61351 24.6344 7.65694 24.784C7.70037 24.9288 7.77034 25.059 7.86685 25.1749C7.96336 25.2858 8.0864 25.3751 8.23599 25.4427C8.38558 25.5102 8.5617 25.544 8.76437 25.544C9.02494 25.544 9.23726 25.4837 9.40132 25.363C9.57021 25.2424 9.6812 25.059 9.73428 24.813H10.3423ZM11.2695 24.8202C11.2744 24.9553 11.3057 25.0711 11.3636 25.1676C11.4215 25.2593 11.4963 25.3341 11.588 25.392C11.6845 25.4451 11.7907 25.4837 11.9065 25.5078C12.0271 25.5319 12.1502 25.544 12.2756 25.544C12.3721 25.544 12.4735 25.5368 12.5796 25.5223C12.6858 25.5078 12.7823 25.4813 12.8692 25.4427C12.9608 25.4041 13.0356 25.3486 13.0935 25.2762C13.1514 25.199 13.1804 25.1025 13.1804 24.9867C13.1804 24.8274 13.1201 24.7068 12.9994 24.6248C12.8788 24.5427 12.7268 24.4776 12.5434 24.4293C12.3649 24.3763 12.1695 24.3304 11.9572 24.2918C11.7448 24.2484 11.547 24.1905 11.3636 24.1181C11.1851 24.0409 11.0355 23.9347 10.9149 23.7996C10.7942 23.6645 10.7339 23.4763 10.7339 23.235C10.7339 23.0469 10.7749 22.8852 10.857 22.7501C10.9438 22.615 11.0524 22.5064 11.1827 22.4244C11.3178 22.3375 11.4674 22.2748 11.6314 22.2362C11.8003 22.1928 11.9668 22.171 12.1309 22.171C12.3432 22.171 12.5386 22.1903 12.7172 22.229C12.8957 22.2627 13.0525 22.3255 13.1876 22.4171C13.3276 22.504 13.4386 22.6246 13.5206 22.779C13.6026 22.9286 13.6509 23.1168 13.6654 23.3436H13.0501C13.0405 23.223 13.0091 23.1241 12.956 23.0469C12.9029 22.9648 12.8354 22.8997 12.7534 22.8514C12.6713 22.8032 12.5796 22.7694 12.4783 22.7501C12.3818 22.726 12.2829 22.7139 12.1815 22.7139C12.0899 22.7139 11.9958 22.7211 11.8993 22.7356C11.8076 22.7501 11.7231 22.7766 11.6459 22.8152C11.5687 22.849 11.506 22.8973 11.4577 22.96C11.4095 23.0179 11.3854 23.0951 11.3854 23.1916C11.3854 23.2978 11.4215 23.387 11.4939 23.4594C11.5711 23.527 11.6676 23.5849 11.7834 23.6331C11.8993 23.6766 12.0295 23.7152 12.1743 23.749C12.3191 23.7779 12.4638 23.8093 12.6086 23.843C12.763 23.8768 12.9126 23.9178 13.0574 23.9661C13.2069 24.0143 13.3372 24.0795 13.4482 24.1615C13.564 24.2387 13.6557 24.3377 13.7233 24.4583C13.7956 24.5789 13.8318 24.7285 13.8318 24.907C13.8318 25.1338 13.7836 25.322 13.6871 25.4716C13.5954 25.6212 13.4723 25.7418 13.3179 25.8335C13.1683 25.9252 12.997 25.9879 12.804 26.0217C12.6158 26.0603 12.4276 26.0796 12.2394 26.0796C12.032 26.0796 11.8341 26.0579 11.6459 26.0145C11.4577 25.971 11.2913 25.9011 11.1465 25.8046C11.0017 25.7032 10.8859 25.573 10.7991 25.4137C10.7122 25.2497 10.664 25.0518 10.6543 24.8202H11.2695ZM16.9659 23.7707C16.9563 23.6259 16.9225 23.4884 16.8646 23.3581C16.8115 23.2278 16.7367 23.1168 16.6402 23.0251C16.5485 22.9286 16.4375 22.8538 16.3073 22.8008C16.1818 22.7429 16.0419 22.7139 15.8874 22.7139C15.7282 22.7139 15.5834 22.7429 15.4532 22.8008C15.3277 22.8538 15.2191 22.9286 15.1274 23.0251C15.0358 23.1217 14.9634 23.235 14.9103 23.3653C14.8572 23.4908 14.8259 23.6259 14.8162 23.7707H16.9659ZM17.5594 24.813C17.4774 25.2328 17.2965 25.5488 17.0166 25.7611C16.7367 25.9735 16.3845 26.0796 15.9598 26.0796C15.6607 26.0796 15.4001 26.0314 15.1781 25.9349C14.961 25.8383 14.7776 25.7032 14.628 25.5295C14.4784 25.3558 14.365 25.1483 14.2878 24.907C14.2154 24.6658 14.1744 24.4028 14.1648 24.1181C14.1648 23.8334 14.2082 23.5728 14.2951 23.3364C14.3819 23.0999 14.5026 22.8949 14.657 22.7211C14.8162 22.5474 15.002 22.4123 15.2143 22.3158C15.4314 22.2193 15.6679 22.171 15.9236 22.171C16.2566 22.171 16.5316 22.241 16.7488 22.381C16.9707 22.5161 17.1469 22.6898 17.2772 22.9021C17.4123 23.1144 17.504 23.346 17.5522 23.597C17.6053 23.8479 17.627 24.0867 17.6174 24.3135H14.8162C14.8114 24.4776 14.8307 24.6344 14.8741 24.784C14.9175 24.9288 14.9875 25.059 15.084 25.1749C15.1805 25.2858 15.3036 25.3751 15.4532 25.4427C15.6027 25.5102 15.7789 25.544 15.9815 25.544C16.2421 25.544 16.4544 25.4837 16.6185 25.363C16.7874 25.2424 16.8984 25.059 16.9514 24.813H17.5594ZM18.1103 22.2579H18.6894V22.8514H18.7039C18.9596 22.3978 19.3649 22.171 19.9199 22.171C20.166 22.171 20.371 22.2048 20.5351 22.2724C20.6992 22.3399 20.8319 22.434 20.9332 22.5547C21.0345 22.6753 21.1045 22.8201 21.1431 22.989C21.1865 23.153 21.2082 23.3364 21.2082 23.539V26H20.593V23.4667C20.593 23.235 20.5254 23.0517 20.3903 22.9166C20.2552 22.7815 20.0694 22.7139 19.833 22.7139C19.6448 22.7139 19.4807 22.7429 19.3408 22.8008C19.2057 22.8587 19.0923 22.9407 19.0006 23.0469C18.9089 23.153 18.839 23.2785 18.7907 23.4232C18.7473 23.5632 18.7256 23.7176 18.7256 23.8865V26H18.1103V22.2579ZM22.8416 22.2579H23.5871V22.8008H22.8416V25.1242C22.8416 25.1966 22.8464 25.2545 22.8561 25.2979C22.8706 25.3413 22.8947 25.3751 22.9285 25.3992C22.9623 25.4234 23.0081 25.4403 23.066 25.4499C23.1287 25.4547 23.2083 25.4571 23.3049 25.4571H23.5871V26H23.1167C22.9574 26 22.8199 25.9903 22.7041 25.971C22.5931 25.9469 22.5014 25.9059 22.429 25.848C22.3615 25.7901 22.3108 25.7081 22.277 25.6019C22.2433 25.4957 22.2264 25.3558 22.2264 25.1821V22.8008H21.5894V22.2579H22.2264V21.136H22.8416V22.2579ZM26.7243 23.7707C26.7147 23.6259 26.6809 23.4884 26.623 23.3581C26.5699 23.2278 26.4951 23.1168 26.3986 23.0251C26.3069 22.9286 26.196 22.8538 26.0657 22.8008C25.9402 22.7429 25.8003 22.7139 25.6459 22.7139C25.4866 22.7139 25.3419 22.7429 25.2116 22.8008C25.0861 22.8538 24.9776 22.9286 24.8859 23.0251C24.7942 23.1217 24.7218 23.235 24.6687 23.3653C24.6156 23.4908 24.5843 23.6259 24.5746 23.7707H26.7243ZM27.3179 24.813C27.2358 25.2328 27.0549 25.5488 26.775 25.7611C26.4951 25.9735 26.1429 26.0796 25.7183 26.0796C25.4191 26.0796 25.1585 26.0314 24.9365 25.9349C24.7194 25.8383 24.536 25.7032 24.3864 25.5295C24.2369 25.3558 24.1235 25.1483 24.0463 24.907C23.9739 24.6658 23.9329 24.4028 23.9232 24.1181C23.9232 23.8334 23.9666 23.5728 24.0535 23.3364C24.1403 23.0999 24.261 22.8949 24.4154 22.7211C24.5746 22.5474 24.7604 22.4123 24.9727 22.3158C25.1899 22.2193 25.4263 22.171 25.6821 22.171C26.015 22.171 26.2901 22.241 26.5072 22.381C26.7292 22.5161 26.9053 22.6898 27.0356 22.9021C27.1707 23.1144 27.2624 23.346 27.3106 23.597C27.3637 23.8479 27.3854 24.0867 27.3758 24.3135H24.5746C24.5698 24.4776 24.5891 24.6344 24.6325 24.784C24.676 24.9288 24.7459 25.059 24.8424 25.1749C24.9389 25.2858 25.062 25.3751 25.2116 25.4427C25.3612 25.5102 25.5373 25.544 25.74 25.544C26.0005 25.544 26.2129 25.4837 26.3769 25.363C26.5458 25.2424 26.6568 25.059 26.7099 24.813H27.3179ZM28.3175 24.1615C28.3175 24.3352 28.3392 24.5065 28.3827 24.6754C28.4309 24.8395 28.5009 24.9867 28.5926 25.117C28.6891 25.2472 28.8097 25.351 28.9545 25.4282C29.1041 25.5054 29.2778 25.544 29.4756 25.544C29.6831 25.544 29.8592 25.503 30.004 25.421C30.1488 25.3389 30.267 25.2328 30.3587 25.1025C30.4503 24.9674 30.5155 24.8154 30.5541 24.6465C30.5975 24.4776 30.6192 24.3063 30.6192 24.1326C30.6192 23.9492 30.5975 23.7731 30.5541 23.6042C30.5107 23.4305 30.4407 23.2785 30.3442 23.1482C30.2525 23.0179 30.1319 22.9142 29.9823 22.837C29.8327 22.7549 29.6517 22.7139 29.4394 22.7139C29.2319 22.7139 29.0558 22.7549 28.911 22.837C28.7663 22.919 28.6505 23.0276 28.5636 23.1627C28.4768 23.2978 28.414 23.4522 28.3754 23.6259C28.3368 23.7996 28.3175 23.9782 28.3175 24.1615ZM31.2128 26H30.5975V25.4933H30.583C30.4817 25.7008 30.3225 25.8504 30.1053 25.9421C29.8882 26.0338 29.6493 26.0796 29.3888 26.0796C29.0992 26.0796 28.8459 26.0265 28.6288 25.9204C28.4164 25.8142 28.2379 25.6719 28.0931 25.4933C27.9532 25.3148 27.847 25.1073 27.7747 24.8709C27.7023 24.6344 27.6661 24.3835 27.6661 24.1181C27.6661 23.8527 27.6999 23.6018 27.7674 23.3653C27.8398 23.1289 27.946 22.9238 28.0859 22.7501C28.2307 22.5716 28.4092 22.4316 28.6215 22.3303C28.8387 22.2241 29.0896 22.171 29.3743 22.171C29.4708 22.171 29.5745 22.1807 29.6855 22.2C29.7965 22.2193 29.9075 22.2531 30.0185 22.3013C30.1295 22.3448 30.2332 22.4051 30.3297 22.4823C30.431 22.5547 30.5155 22.6463 30.583 22.7573H30.5975V20.832H31.2128V26ZM33.906 20.832H34.5212V22.7646H34.5357C34.6371 22.5571 34.7963 22.4075 35.0134 22.3158C35.2306 22.2193 35.4694 22.171 35.73 22.171C36.0195 22.171 36.2705 22.2241 36.4828 22.3303C36.6999 22.4364 36.8785 22.5812 37.0184 22.7646C37.1631 22.9431 37.2717 23.1506 37.3441 23.387C37.4165 23.6235 37.4527 23.8744 37.4527 24.1398C37.4527 24.4052 37.4165 24.6561 37.3441 24.8926C37.2765 25.129 37.1704 25.3365 37.0256 25.515C36.8857 25.6888 36.7071 25.8263 36.49 25.9276C36.2777 26.029 36.0292 26.0796 35.7445 26.0796C35.6528 26.0796 35.5491 26.07 35.4332 26.0507C35.3223 26.0314 35.2113 26 35.1003 25.9566C34.9893 25.9131 34.8832 25.8552 34.7818 25.7829C34.6853 25.7057 34.6033 25.6116 34.5357 25.5006H34.5212V26H33.906V20.832ZM36.8012 24.0964C36.8012 23.9227 36.7771 23.7538 36.7289 23.5897C36.6854 23.4208 36.6155 23.2712 36.519 23.141C36.4273 23.0107 36.3066 22.9069 36.1571 22.8297C36.0123 22.7525 35.841 22.7139 35.6432 22.7139C35.4357 22.7139 35.2595 22.7549 35.1148 22.837C34.97 22.919 34.8518 23.0276 34.7601 23.1627C34.6684 23.293 34.6009 23.4425 34.5574 23.6114C34.5188 23.7803 34.4995 23.9516 34.4995 24.1253C34.4995 24.3087 34.5212 24.4872 34.5647 24.661C34.6081 24.8298 34.6757 24.9794 34.7673 25.1097C34.8638 25.24 34.9869 25.3462 35.1365 25.4282C35.2861 25.5054 35.467 25.544 35.6793 25.544C35.8917 25.544 36.0678 25.503 36.2077 25.421C36.3525 25.3389 36.4683 25.2303 36.5552 25.0952C36.642 24.9601 36.7047 24.8057 36.7433 24.632C36.7819 24.4583 36.8012 24.2797 36.8012 24.0964ZM39.4994 26.4994C39.427 26.6828 39.3547 26.8372 39.2823 26.9627C39.2147 27.0881 39.1375 27.1895 39.0507 27.2667C38.9686 27.3487 38.8745 27.4066 38.7684 27.4404C38.667 27.479 38.5488 27.4983 38.4137 27.4983C38.3413 27.4983 38.2689 27.4935 38.1966 27.4838C38.1242 27.4742 38.0542 27.4573 37.9867 27.4331V26.8686C38.0397 26.8927 38.1 26.912 38.1676 26.9265C38.24 26.9458 38.3003 26.9554 38.3486 26.9554C38.474 26.9554 38.5778 26.9241 38.6598 26.8613C38.7467 26.8034 38.8118 26.719 38.8552 26.608L39.1086 25.9783L37.6247 22.2579H38.3196L39.4126 25.3196H39.427L40.4766 22.2579H41.128L39.4994 26.4994ZM46.4358 23.6476V22.4244C46.4358 22.0046 46.4286 21.8309 46.4069 21.6354H47.5288C47.5143 21.7802 47.5071 21.8888 47.4998 22.1276H48.904C49.3093 22.1276 49.5482 22.1131 49.7219 22.0914V23.1627C49.4758 23.141 49.208 23.1265 48.9402 23.1265H47.4998V23.6476H48.7593C49.085 23.6476 49.2442 23.6404 49.4252 23.6187C49.3962 23.8865 49.389 24.0964 49.389 24.4293V25.6598C49.389 26.1303 49.4034 26.3909 49.4324 26.6514H48.2815V26.3691H46.0377V26.6442H44.9013C44.9303 26.4343 44.9448 26.123 44.9448 25.725V24.2701C44.9448 23.995 44.9375 23.7996 44.9231 23.6187C45.1113 23.6404 45.2705 23.6476 45.5817 23.6476H46.4358ZM46.0377 24.661V25.3703H48.2815V24.661H46.0377ZM46.1101 20.4411V20.2095C46.1101 20.0503 46.1029 19.949 46.0812 19.8331H47.2754C47.2537 19.9417 47.2465 20.043 47.2465 20.224V20.4411H48.8316C49.2876 20.4411 49.6278 20.4267 49.8522 20.3977V21.5124C49.5627 21.4907 49.1718 21.4762 48.8533 21.4762H44.7711C44.7711 21.6137 44.7711 21.7223 44.7711 21.7947C44.7711 24.3063 44.5394 25.6164 43.917 26.6731C43.6202 26.2678 43.3958 26.0362 43.0267 25.7684C43.5189 24.8853 43.6564 23.9371 43.6564 21.5269C43.6564 20.984 43.6492 20.6583 43.6347 20.405C43.917 20.4267 44.2282 20.4411 44.5901 20.4411H46.1101ZM51.4591 22.6994H51.1189C50.9017 22.6994 50.8076 22.7067 50.6918 22.7139V22.0552C50.605 22.1204 50.576 22.1421 50.4674 22.2145C50.3299 21.6716 50.2503 21.4472 50.0983 21.1143C50.6122 20.8248 51.0465 20.3977 51.365 19.8693H52.4362C52.6534 20.1516 52.9067 20.3905 53.2975 20.651V20.4122C53.5074 20.4411 53.6956 20.4484 54.0431 20.4484H54.6366V20.3905C54.6366 20.1227 54.6294 19.9851 54.6004 19.8331H55.5848C55.5558 19.9851 55.5486 20.1154 55.5486 20.3905V20.4484H55.925C55.8671 20.3398 55.8671 20.3398 55.6716 20.0069L56.3665 19.7463C56.5547 20.0141 56.6777 20.2095 56.7935 20.4411C56.8732 20.4339 56.9021 20.4267 56.9962 20.4194V21.44C56.8008 21.4183 56.685 21.411 56.4099 21.411H55.5486V21.7078H56.2724C56.6343 21.7078 56.7501 21.7078 56.8949 21.6933C56.8804 21.8888 56.8732 22.0335 56.8732 22.475V25.9131C56.8732 26.4126 56.6415 26.5863 55.9901 26.5863C55.9684 26.5863 55.896 26.5863 55.7657 26.579C55.7513 26.1013 55.7151 25.9276 55.5775 25.6309C55.7151 25.6453 55.7657 25.6453 55.8092 25.6453C55.9322 25.6453 55.9539 25.6236 55.9539 25.4861V25.0952H55.5486V25.848C55.5486 26.2171 55.5558 26.3619 55.5703 26.5501H54.6149C54.6294 26.3764 54.6366 26.2099 54.6366 25.8697V25.0952H54.2674V25.7973C54.2674 26.2678 54.2747 26.4126 54.2892 26.637H53.3265C53.3554 26.3836 53.3627 26.1954 53.3627 25.7973V22.4678C53.3627 22.0118 53.3627 21.8888 53.341 21.6933C53.5292 21.7078 53.6594 21.7078 54.101 21.7078H54.6366V21.411H54.0431C53.7608 21.411 53.5364 21.4183 53.3554 21.4328L53.1528 21.8309V22.7139C53.0442 22.6994 52.9718 22.6994 52.7474 22.6994H52.4362V22.9962H52.6099C52.8994 22.9962 53.037 22.989 53.189 22.9745V23.9299C53.0225 23.9082 52.9718 23.9082 52.6099 23.9082H50.8655C50.6122 23.9082 50.453 23.9154 50.272 23.9371V22.9672C50.4385 22.989 50.5977 22.9962 50.8655 22.9962H51.4591V22.6994ZM51.1189 21.8381H51.4591C51.4591 21.5124 51.4518 21.4545 51.4446 21.3459C51.2564 21.5558 51.1406 21.6716 50.9524 21.8381C51.0103 21.8381 51.032 21.8381 51.1189 21.8381ZM52.4362 21.8381H52.7402C52.9501 21.8381 53.0297 21.8381 53.1166 21.8236C52.7619 21.5848 52.6751 21.5196 52.4579 21.3242C52.4434 21.44 52.4434 21.5196 52.4362 21.8381ZM51.5314 21.2446H52.3711C52.1829 21.0636 52.096 20.955 51.9223 20.7307C51.7631 20.9623 51.6907 21.0564 51.5314 21.2446ZM54.6366 24.2267V23.8575H54.2674V24.2267H54.6366ZM55.5486 24.2267H55.9539V23.8575H55.5486V24.2267ZM55.5486 22.627V22.989H55.9539V22.627H55.5486ZM54.6366 22.627H54.2674V22.989H54.6366V22.627ZM53.1383 26.5718H52.1033V26.3691H51.6111V26.637H50.5109C50.5326 26.4632 50.5398 26.3185 50.5398 26.0362V24.7044C50.5398 24.4655 50.5326 24.3135 50.5109 24.1326C50.6629 24.147 50.8511 24.1543 51.1189 24.1543H52.581C52.856 24.1543 52.9935 24.147 53.1311 24.1326C53.1238 24.2556 53.1166 24.3714 53.1166 24.6248V26.1013C53.1166 26.3474 53.1238 26.4415 53.1383 26.5718ZM51.6038 25.0156V25.4861H52.1033V25.0156H51.6038ZM58.2339 20.2891H60.1086C60.1086 20.0937 60.1014 19.9924 60.0724 19.8404H61.2884C61.2667 19.9851 61.2522 20.1082 61.2522 20.253V20.2891H63.2716C63.6191 20.2891 63.8145 20.2819 64.0678 20.2457V21.2446C63.8434 21.2156 63.6553 21.2084 63.2789 21.2084H58.1688C57.7996 21.2084 57.6187 21.2156 57.3943 21.2446V20.2457C57.6476 20.2747 57.8648 20.2891 58.2339 20.2891ZM62.3814 25.573V25.6309C62.5334 25.6381 62.5913 25.6381 62.6419 25.6381C62.7722 25.6381 62.8084 25.6091 62.8084 25.5006V24.1036H58.6465V25.7973C58.6465 26.2244 58.6537 26.4198 58.6827 26.6587H57.5246C57.5535 26.456 57.568 26.152 57.568 25.7973V23.8865C57.568 23.6621 57.5608 23.445 57.5391 23.2278C57.7924 23.2495 58.0095 23.2568 58.3353 23.2568H63.1848C63.5322 23.2568 63.7204 23.2495 63.9158 23.2278C63.8941 23.4305 63.8869 23.6187 63.8869 23.8865V25.573C63.8869 26.1448 63.8362 26.304 63.6263 26.4415C63.4526 26.5573 63.1341 26.608 62.6347 26.608C62.4972 26.608 62.2655 26.6008 62.0701 26.5935C62.0629 26.333 62.0484 26.2389 61.9977 26.0072H61.8674H60.0869V26.2823H59.0301C59.0518 26.1303 59.0591 25.9783 59.0591 25.7032V24.6971C59.0591 24.5162 59.0518 24.4004 59.0374 24.2773C59.2111 24.2918 59.3631 24.299 59.6236 24.299H61.8602C62.1497 24.299 62.2655 24.2918 62.4031 24.2773C62.3886 24.4076 62.3814 24.5162 62.3814 24.7116V25.573ZM60.0869 25.0011V25.2617H61.4114V25.0011H60.0869ZM58.4004 22.5836V21.8743C58.4004 21.6571 58.3932 21.5558 58.3714 21.3821C58.5886 21.3966 58.7551 21.4038 59.1025 21.4038H62.4175C62.7288 21.4038 62.8953 21.3966 63.1052 21.3821C63.0834 21.5413 63.0762 21.6571 63.0762 21.8815V22.5836C63.0762 22.8225 63.0834 22.9238 63.1052 23.083C62.8808 23.0686 62.7143 23.0613 62.3958 23.0613H59.088C58.784 23.0613 58.6031 23.0686 58.3714 23.083C58.3932 22.9093 58.4004 22.8008 58.4004 22.5836ZM59.4644 22.0914V22.381H61.9977V22.0914H59.4644ZM66.5215 21.2952V20.3688C66.3333 20.9768 66.261 21.1577 66.0221 21.6933V25.8335C66.0221 26.152 66.0293 26.3547 66.0655 26.6659H64.9147C64.9509 26.3185 64.9581 26.1665 64.9581 25.8408V23.9878C64.9581 23.9444 64.9653 23.6983 64.9726 23.2568C64.7916 23.5029 64.6758 23.6549 64.6252 23.7128C64.5383 23.2278 64.437 22.8587 64.2633 22.3882C64.6686 21.9467 64.9581 21.469 65.2042 20.8103C65.3634 20.3832 65.4503 20.0792 65.4865 19.7752L66.6229 20.0358L66.5505 20.2747C66.7387 20.3036 66.9631 20.3109 67.3467 20.3109H68.4686C68.4903 20.1154 68.4903 20.072 68.5048 19.8187L69.6339 19.8838C69.6122 19.9996 69.6122 19.9996 69.5615 20.3109H70.3722C70.7486 20.3109 70.944 20.3036 71.2046 20.2674V21.288C70.9874 21.2735 70.7848 21.2663 70.5242 21.2663H69.3878C69.3589 21.4038 69.3589 21.411 69.3299 21.5486H70.2781C70.6328 21.5486 70.7269 21.5486 70.8789 21.5341C70.8499 21.7874 70.8427 21.9684 70.8427 22.2507V24.5307C70.8427 24.813 70.8499 24.9794 70.8716 25.2038C70.6038 25.1893 70.4735 25.1893 70.2781 25.1893H68.2225C68.0271 25.1893 67.933 25.1893 67.6434 25.2038C67.6579 24.9722 67.6579 24.8636 67.6579 24.6465V22.0914C67.6579 21.7874 67.6579 21.6716 67.6434 21.5413C67.781 21.5486 67.8751 21.5486 68.208 21.5486H68.2514C68.2804 21.4545 68.2876 21.4038 68.3166 21.2663H67.2092C66.8907 21.2663 66.7532 21.2735 66.5215 21.2952ZM68.7002 22.2796V22.5547H69.8076V22.2796H68.7002ZM68.7002 23.2206V23.5029H69.8076V23.2206H68.7002ZM68.7002 24.1688V24.451H69.8076V24.1688H68.7002ZM67.3612 26.6659H66.2899C66.3189 26.4126 66.3261 26.1882 66.3261 25.7539V22.5836C66.3261 22.1783 66.3189 21.9611 66.2899 21.715H67.3973C67.3684 21.9539 67.3612 22.171 67.3612 22.5909V25.4282H70.3215C70.6907 25.4282 70.9078 25.421 71.1684 25.392V26.4343C70.8861 26.4053 70.6617 26.3909 70.3071 26.3909H67.3612V26.6659ZM73.2747 25.4137H73.0069C72.6812 25.4137 72.4785 25.421 72.2252 25.4427C72.2469 25.2038 72.2541 24.9722 72.2541 24.5596V22.96C72.2541 22.5619 72.2469 22.3086 72.2252 22.0914C72.4423 22.1059 72.6015 22.1131 72.9345 22.1131H76.8575C77.2556 22.1131 77.4294 22.1059 77.6393 22.0914C77.6175 22.2941 77.6103 22.5402 77.6103 22.96V24.603C77.6103 25.0301 77.6175 25.269 77.6393 25.4427C77.4076 25.421 77.2122 25.4137 76.8648 25.4137H76.4739C77.0385 25.6381 77.5669 25.7322 78.421 25.7829C78.2111 26.0869 78.117 26.2606 77.9215 26.7455C77.2412 26.6514 76.8503 26.5501 76.3364 26.3619C75.8876 26.1954 75.6271 26.0724 75.2507 25.8335L75.7356 25.4137H73.9623L74.4907 25.8335C74.1215 26.0869 73.8465 26.2244 73.3326 26.4126C72.8621 26.579 72.5292 26.6659 72.008 26.76C71.856 26.4053 71.7257 26.181 71.4579 25.8335C72.2758 25.7467 72.7897 25.6309 73.2747 25.4137ZM73.3326 22.8659V23.083H76.5318V22.8659H73.3326ZM73.3326 23.6549V23.872H76.5318V23.6549H73.3326ZM73.3326 24.4438V24.6682H76.5318V24.4438H73.3326ZM78.0446 20.68V21.2952C78.0446 21.621 78.0518 21.773 78.0808 21.9467C77.9143 21.9322 77.7261 21.925 77.357 21.925H72.493C72.1311 21.925 71.9212 21.9322 71.7692 21.9467C71.7981 21.744 71.8054 21.6137 71.8054 21.2952V20.68C71.8054 20.347 71.7981 20.2168 71.7692 19.9851C71.9646 20.0069 72.1673 20.0141 72.5943 20.0141H77.2556C77.6827 20.0141 77.8926 20.0069 78.0808 19.9851C78.0518 20.195 78.0446 20.3326 78.0446 20.68ZM73.5497 21.136V20.8175H72.8476V21.136H73.5497ZM75.2362 21.136V20.8175H74.5414V21.136H75.2362ZM76.2278 21.136H76.9589V20.8175H76.2278V21.136ZM81.8663 25.7973V25.8408C81.8663 26.2606 81.8735 26.4488 81.9025 26.6587H80.7661C80.7951 26.3981 80.8095 26.1737 80.8095 25.8552V25.3486C80.1798 25.544 79.5718 25.7105 79.333 25.7684C79.1593 25.8046 79.029 25.8408 78.9132 25.8914L78.6454 24.755C78.8118 24.7406 78.8625 24.7333 79.1086 24.6971V21.0491C78.9276 21.0564 78.877 21.0564 78.725 21.0709V19.9996C78.9494 20.0286 79.181 20.043 79.4633 20.043H81.584C81.917 20.043 82.0907 20.0358 82.3295 19.9996V20.3905C82.5322 20.4122 82.6263 20.4122 82.8507 20.4122H84.6457C84.8412 20.4122 85.0655 20.3977 85.2754 20.3688C85.261 20.5714 85.2537 20.6583 85.2393 20.8754C85.1596 22.2507 84.8629 23.3943 84.3345 24.4293C84.7326 24.9215 84.9859 25.1387 85.5577 25.4933C85.2899 25.877 85.1162 26.1882 84.928 26.6297C84.3634 26.2244 84.0739 25.9566 83.6686 25.4644C83.2415 25.9928 82.9882 26.2244 82.3295 26.6949C82.1848 26.3402 82.0328 26.0579 81.8663 25.7973ZM81.8663 21.0419V25.5223C82.3151 25.2545 82.6842 24.9143 83.0027 24.4945C82.5973 23.749 82.3657 23.0541 82.0979 21.7947L83.0172 21.4472H82.8217C82.4526 21.4472 82.2572 21.4545 82.0834 21.4834V21.0491C82.0255 21.0419 81.9532 21.0419 81.8663 21.0419ZM84.0884 21.4472H83.0823C83.2705 22.4027 83.3863 22.7863 83.6469 23.3436C83.9074 22.656 84.0015 22.2434 84.0884 21.4472ZM80.1798 21.0419V21.5703H80.8095V21.0419H80.1798ZM80.1798 22.4533V22.9672H80.8095V22.4533H80.1798ZM80.1798 23.8792V24.5017C80.3753 24.4583 80.5779 24.4076 80.8095 24.357V23.8792H80.1798ZM87.3238 21.7006V21.0202C87.3238 20.6438 87.3093 20.3543 87.2732 20.1227H88.6629C88.6194 20.3615 88.605 20.5642 88.605 20.9912V21.5703L91.1311 21.2952C91.4206 21.2663 91.5002 21.2446 91.645 21.1794L92.3688 21.8453C92.253 21.9684 92.253 21.9684 92.1299 22.2434C91.92 22.685 91.6377 23.1627 91.3482 23.5246C91.0732 23.8792 90.8126 24.1253 90.3059 24.5162C89.9585 24.1398 89.6979 23.9299 89.2926 23.6983C89.5893 23.5246 89.7993 23.3798 90.0526 23.141C90.2842 22.931 90.4073 22.7718 90.581 22.475L88.5977 22.7067V24.2556C88.5977 24.784 88.6122 24.8998 88.7135 24.9794C88.7932 25.059 89.0537 25.0952 89.4808 25.0952C90.3638 25.0952 91.1817 24.9867 91.8114 24.7912L91.8549 26.1448C91.8042 26.1448 91.7608 26.1448 91.7391 26.1448C91.5581 26.152 91.5509 26.1592 91.3989 26.1737C90.704 26.2389 89.8861 26.2895 89.4663 26.2895C88.8366 26.2895 88.3589 26.2461 88.0766 26.1592C87.7581 26.0579 87.4975 25.7901 87.4034 25.4716C87.3311 25.2183 87.3238 25.117 87.3238 24.4221V22.8442L86.8895 22.8949C86.3105 22.96 86.2164 22.9745 85.9341 23.0469L85.8111 21.8019C85.9486 21.8091 86.0427 21.8164 86.0789 21.8164C86.1802 21.8164 86.5204 21.7874 86.7593 21.7657L87.3238 21.7006ZM93.2229 21.4183L94.0553 20.3977C94.9673 20.9333 95.4377 21.2663 96.0457 21.8164L95.1916 22.9455C94.5619 22.2869 93.9467 21.8091 93.2229 21.4183ZM93.6716 26.2823L93.2953 24.8926C94.0335 24.8347 94.7935 24.6537 95.4739 24.3714C96.3859 23.995 97.0374 23.4522 97.5947 22.5836C97.8987 22.1204 98.0941 21.7223 98.304 21.165C98.6587 21.592 98.8252 21.7368 99.368 22.1349C98.7094 23.5608 98.0217 24.4149 97.0084 25.0663C96.2267 25.573 95.5391 25.8408 94.1928 26.152C93.9105 26.2171 93.8671 26.2244 93.6716 26.2823ZM102.213 19.8476L103.508 20.101C103.501 20.1154 103.4 20.3181 103.197 20.7307L105.144 20.709C105.354 20.709 105.448 20.6872 105.586 20.6149L106.23 21.2518C106.143 21.3459 106.121 21.3893 106.063 21.563C105.636 22.8514 105.253 23.6331 104.717 24.357C104.254 24.9794 103.66 25.5295 102.958 25.9928C102.567 26.2461 102.27 26.4053 101.713 26.6587C101.445 26.1882 101.272 25.9638 100.866 25.573C101.966 25.1821 102.669 24.755 103.32 24.0891C102.871 23.72 102.517 23.4884 101.974 23.1916L102.734 22.2796C103.378 22.627 103.61 22.7718 104.066 23.1048C104.362 22.6488 104.536 22.2579 104.688 21.7802L102.683 21.7947C102.263 22.5185 101.764 23.112 101.033 23.7562C100.685 23.3798 100.461 23.1989 99.9905 22.9383C100.845 22.2651 101.366 21.6644 101.793 20.861C101.995 20.4918 102.118 20.1806 102.213 19.8476ZM107.156 23.9371V22.5402C107.496 22.5909 107.887 22.6053 108.64 22.6053H112.1C112.824 22.6053 113.099 22.5909 113.584 22.5402V23.9371C113.236 23.901 112.918 23.8937 112.093 23.8937H108.647C107.837 23.8937 107.598 23.901 107.156 23.9371Z"
        fill="#3B5998" />
</svg>