<svg width="193" height="42" viewBox="0 0 193 42" fill="none" xmlns="http://www.w3.org/2000/svg">
<path d="M1.97714 34.7486H4.10286C4.72 34.7562 5.16952 34.6305 5.45143 34.3714C5.74095 34.1124 5.88571 33.739 5.88571 33.2514C5.88571 32.7638 5.74095 32.3943 5.45143 32.1429C5.16952 31.8838 4.72 31.7543 4.10286 31.7543H1.97714V34.7486ZM0.891429 30.84H4.46857C5.29143 30.84 5.91238 31.0533 6.33143 31.48C6.7581 31.899 6.97143 32.4895 6.97143 33.2514C6.97143 34.0133 6.7581 34.6076 6.33143 35.0343C5.91238 35.461 5.29143 35.6705 4.46857 35.6629H1.97714V39H0.891429V30.84ZM7.87929 33.0914H8.79357V34.3371H8.81643C9.05262 33.8571 9.34214 33.5029 9.685 33.2743C10.0279 33.0457 10.4621 32.939 10.9879 32.9543V33.9829C10.5993 33.9829 10.2679 34.0362 9.99357 34.1429C9.71929 34.2495 9.49833 34.4057 9.33071 34.6114C9.16309 34.8171 9.04119 35.0686 8.965 35.3657C8.88881 35.6552 8.85071 35.9905 8.85071 36.3714V39H7.87929V33.0914ZM15.3928 35.48C15.3775 35.2514 15.3242 35.0343 15.2328 34.8286C15.149 34.6229 15.0309 34.4476 14.8785 34.3029C14.7337 34.1505 14.5585 34.0324 14.3528 33.9486C14.1547 33.8571 13.9337 33.8114 13.6899 33.8114C13.4385 33.8114 13.2099 33.8571 13.0042 33.9486C12.8061 34.0324 12.6347 34.1505 12.4899 34.3029C12.3451 34.4552 12.2309 34.6343 12.1471 34.84C12.0632 35.0381 12.0137 35.2514 11.9985 35.48H15.3928ZM16.3299 37.1257C16.2004 37.7886 15.9147 38.2876 15.4728 38.6229C15.0309 38.9581 14.4747 39.1257 13.8042 39.1257C13.3318 39.1257 12.9204 39.0495 12.5699 38.8971C12.2271 38.7448 11.9375 38.5314 11.7013 38.2571C11.4651 37.9829 11.2861 37.6552 11.1642 37.2743C11.0499 36.8933 10.9851 36.4781 10.9699 36.0286C10.9699 35.579 11.0385 35.1676 11.1756 34.7943C11.3128 34.421 11.5032 34.0971 11.7471 33.8229C11.9985 33.5486 12.2918 33.3352 12.6271 33.1829C12.9699 33.0305 13.3432 32.9543 13.7471 32.9543C14.2728 32.9543 14.7071 33.0648 15.0499 33.2857C15.4004 33.499 15.6785 33.7733 15.8842 34.1086C16.0975 34.4438 16.2423 34.8095 16.3185 35.2057C16.4023 35.6019 16.4366 35.979 16.4213 36.3371H11.9985C11.9909 36.5962 12.0213 36.8438 12.0899 37.08C12.1585 37.3086 12.269 37.5143 12.4213 37.6971C12.5737 37.8724 12.768 38.0133 13.0042 38.12C13.2404 38.2267 13.5185 38.28 13.8385 38.28C14.2499 38.28 14.5851 38.1848 14.8442 37.9943C15.1109 37.8038 15.2861 37.5143 15.3699 37.1257H16.3299ZM17.794 37.1371C17.8016 37.3505 17.8512 37.5333 17.9426 37.6857C18.034 37.8305 18.1521 37.9486 18.2969 38.04C18.4493 38.1238 18.6169 38.1848 18.7997 38.2229C18.9902 38.261 19.1845 38.28 19.3826 38.28C19.535 38.28 19.695 38.2686 19.8626 38.2457C20.0302 38.2229 20.1826 38.181 20.3197 38.12C20.4645 38.059 20.5826 37.9714 20.674 37.8571C20.7654 37.7352 20.8112 37.5829 20.8112 37.4C20.8112 37.1486 20.7159 36.9581 20.5254 36.8286C20.335 36.699 20.095 36.5962 19.8054 36.52C19.5235 36.4362 19.215 36.3638 18.8797 36.3029C18.5445 36.2343 18.2321 36.1429 17.9426 36.0286C17.6607 35.9067 17.4245 35.739 17.234 35.5257C17.0435 35.3124 16.9483 35.0152 16.9483 34.6343C16.9483 34.3371 17.0131 34.0819 17.1426 33.8686C17.2797 33.6552 17.4512 33.4838 17.6569 33.3543C17.8702 33.2171 18.1064 33.1181 18.3654 33.0571C18.6321 32.9886 18.895 32.9543 19.154 32.9543C19.4893 32.9543 19.7978 32.9848 20.0797 33.0457C20.3616 33.099 20.6093 33.1981 20.8226 33.3429C21.0435 33.48 21.2188 33.6705 21.3483 33.9143C21.4778 34.1505 21.554 34.4476 21.5769 34.8057H20.6054C20.5902 34.6152 20.5407 34.459 20.4569 34.3371C20.3731 34.2076 20.2664 34.1048 20.1369 34.0286C20.0073 33.9524 19.8626 33.899 19.7026 33.8686C19.5502 33.8305 19.394 33.8114 19.234 33.8114C19.0893 33.8114 18.9407 33.8229 18.7883 33.8457C18.6435 33.8686 18.5102 33.9105 18.3883 33.9714C18.2664 34.0248 18.1673 34.101 18.0912 34.2C18.015 34.2914 17.9769 34.4133 17.9769 34.5657C17.9769 34.7333 18.034 34.8743 18.1483 34.9886C18.2702 35.0952 18.4226 35.1867 18.6054 35.2629C18.7883 35.3314 18.994 35.3924 19.2226 35.4457C19.4512 35.4914 19.6797 35.541 19.9083 35.5943C20.1521 35.6476 20.3883 35.7124 20.6169 35.7886C20.8531 35.8648 21.0588 35.9676 21.234 36.0971C21.4169 36.219 21.5616 36.3752 21.6683 36.5657C21.7826 36.7562 21.8397 36.9924 21.8397 37.2743C21.8397 37.6324 21.7635 37.9295 21.6112 38.1657C21.4664 38.4019 21.2721 38.5924 21.0283 38.7371C20.7921 38.8819 20.5216 38.981 20.2169 39.0343C19.9197 39.0952 19.6226 39.1257 19.3254 39.1257C18.9978 39.1257 18.6854 39.0914 18.3883 39.0229C18.0912 38.9543 17.8283 38.8438 17.5997 38.6914C17.3712 38.5314 17.1883 38.3257 17.0512 38.0743C16.914 37.8152 16.8378 37.5029 16.8226 37.1371H17.794ZM26.7883 35.48C26.7731 35.2514 26.7197 35.0343 26.6283 34.8286C26.5445 34.6229 26.4264 34.4476 26.274 34.3029C26.1293 34.1505 25.954 34.0324 25.7483 33.9486C25.5502 33.8571 25.3293 33.8114 25.0854 33.8114C24.834 33.8114 24.6054 33.8571 24.3997 33.9486C24.2016 34.0324 24.0302 34.1505 23.8854 34.3029C23.7407 34.4552 23.6264 34.6343 23.5426 34.84C23.4588 35.0381 23.4093 35.2514 23.394 35.48H26.7883ZM27.7254 37.1257C27.5959 37.7886 27.3102 38.2876 26.8683 38.6229C26.4264 38.9581 25.8702 39.1257 25.1997 39.1257C24.7273 39.1257 24.3159 39.0495 23.9654 38.8971C23.6226 38.7448 23.3331 38.5314 23.0969 38.2571C22.8607 37.9829 22.6816 37.6552 22.5597 37.2743C22.4454 36.8933 22.3807 36.4781 22.3654 36.0286C22.3654 35.579 22.434 35.1676 22.5712 34.7943C22.7083 34.421 22.8988 34.0971 23.1426 33.8229C23.394 33.5486 23.6873 33.3352 24.0226 33.1829C24.3654 33.0305 24.7388 32.9543 25.1426 32.9543C25.6683 32.9543 26.1026 33.0648 26.4454 33.2857C26.7959 33.499 27.074 33.7733 27.2797 34.1086C27.4931 34.4438 27.6378 34.8095 27.714 35.2057C27.7978 35.6019 27.8321 35.979 27.8169 36.3371H23.394C23.3864 36.5962 23.4169 36.8438 23.4854 37.08C23.554 37.3086 23.6645 37.5143 23.8169 37.6971C23.9693 37.8724 24.1635 38.0133 24.3997 38.12C24.6359 38.2267 24.914 38.28 25.234 38.28C25.6454 38.28 25.9807 38.1848 26.2397 37.9943C26.5064 37.8038 26.6816 37.5143 26.7654 37.1257H27.7254ZM28.5953 33.0914H29.5096V34.0286H29.5324C29.9362 33.3124 30.5762 32.9543 31.4524 32.9543C31.841 32.9543 32.1648 33.0076 32.4238 33.1143C32.6829 33.221 32.8924 33.3695 33.0524 33.56C33.2124 33.7505 33.3229 33.979 33.3838 34.2457C33.4524 34.5048 33.4867 34.7943 33.4867 35.1143V39H32.5153V35C32.5153 34.6343 32.4086 34.3448 32.1953 34.1314C31.9819 33.9181 31.6886 33.8114 31.3153 33.8114C31.0181 33.8114 30.7591 33.8571 30.5381 33.9486C30.3248 34.04 30.1457 34.1695 30.001 34.3371C29.8562 34.5048 29.7457 34.7029 29.6696 34.9314C29.601 35.1524 29.5667 35.3962 29.5667 35.6629V39H28.5953V33.0914ZM36.0657 33.0914H37.2429V33.9486H36.0657V37.6171C36.0657 37.7314 36.0733 37.8229 36.0886 37.8914C36.1114 37.96 36.1495 38.0133 36.2029 38.0514C36.2562 38.0895 36.3286 38.1162 36.42 38.1314C36.519 38.139 36.6448 38.1429 36.7971 38.1429H37.2429V39H36.5C36.2486 39 36.0314 38.9848 35.8486 38.9543C35.6733 38.9162 35.5286 38.8514 35.4143 38.76C35.3076 38.6686 35.2276 38.539 35.1743 38.3714C35.121 38.2038 35.0943 37.9829 35.0943 37.7086V33.9486H34.0886V33.0914H35.0943V31.32H36.0657V33.0914ZM42.1963 35.48C42.1811 35.2514 42.1278 35.0343 42.0363 34.8286C41.9525 34.6229 41.8344 34.4476 41.6821 34.3029C41.5373 34.1505 41.3621 34.0324 41.1563 33.9486C40.9582 33.8571 40.7373 33.8114 40.4935 33.8114C40.2421 33.8114 40.0135 33.8571 39.8078 33.9486C39.6097 34.0324 39.4382 34.1505 39.2935 34.3029C39.1487 34.4552 39.0344 34.6343 38.9506 34.84C38.8668 35.0381 38.8173 35.2514 38.8021 35.48H42.1963ZM43.1335 37.1257C43.004 37.7886 42.7182 38.2876 42.2763 38.6229C41.8344 38.9581 41.2782 39.1257 40.6078 39.1257C40.1354 39.1257 39.724 39.0495 39.3735 38.8971C39.0306 38.7448 38.7411 38.5314 38.5049 38.2571C38.2687 37.9829 38.0897 37.6552 37.9678 37.2743C37.8535 36.8933 37.7887 36.4781 37.7735 36.0286C37.7735 35.579 37.8421 35.1676 37.9792 34.7943C38.1163 34.421 38.3068 34.0971 38.5506 33.8229C38.8021 33.5486 39.0954 33.3352 39.4306 33.1829C39.7735 33.0305 40.1468 32.9543 40.5506 32.9543C41.0763 32.9543 41.5106 33.0648 41.8535 33.2857C42.204 33.499 42.4821 33.7733 42.6878 34.1086C42.9011 34.4438 43.0459 34.8095 43.1221 35.2057C43.2059 35.6019 43.2401 35.979 43.2249 36.3371H38.8021C38.7944 36.5962 38.8249 36.8438 38.8935 37.08C38.9621 37.3086 39.0725 37.5143 39.2249 37.6971C39.3773 37.8724 39.5716 38.0133 39.8078 38.12C40.044 38.2267 40.3221 38.28 40.6421 38.28C41.0535 38.28 41.3887 38.1848 41.6478 37.9943C41.9144 37.8038 42.0897 37.5143 42.1735 37.1257H43.1335ZM44.7119 36.0971C44.7119 36.3714 44.7462 36.6419 44.8147 36.9086C44.8909 37.1676 45.0014 37.4 45.1462 37.6057C45.2985 37.8114 45.489 37.9752 45.7176 38.0971C45.9538 38.219 46.2281 38.28 46.5404 38.28C46.8681 38.28 47.1462 38.2152 47.3747 38.0857C47.6033 37.9562 47.79 37.7886 47.9347 37.5829C48.0795 37.3695 48.1823 37.1295 48.2433 36.8629C48.3119 36.5962 48.3462 36.3257 48.3462 36.0514C48.3462 35.7619 48.3119 35.4838 48.2433 35.2171C48.1747 34.9429 48.0643 34.7029 47.9119 34.4971C47.7671 34.2914 47.5766 34.1276 47.3404 34.0057C47.1043 33.8762 46.8185 33.8114 46.4833 33.8114C46.1557 33.8114 45.8776 33.8762 45.649 34.0057C45.4204 34.1352 45.2376 34.3067 45.1004 34.52C44.9633 34.7333 44.8643 34.9771 44.8033 35.2514C44.7423 35.5257 44.7119 35.8076 44.7119 36.0971ZM49.2833 39H48.3119V38.2H48.289C48.129 38.5276 47.8776 38.7638 47.5347 38.9086C47.1919 39.0533 46.8147 39.1257 46.4033 39.1257C45.9462 39.1257 45.5462 39.0419 45.2033 38.8743C44.8681 38.7067 44.5862 38.4819 44.3576 38.2C44.1366 37.9181 43.969 37.5905 43.8547 37.2171C43.7404 36.8438 43.6833 36.4476 43.6833 36.0286C43.6833 35.6095 43.7366 35.2133 43.8433 34.84C43.9576 34.4667 44.1252 34.1429 44.3462 33.8686C44.5747 33.5867 44.8566 33.3657 45.1919 33.2057C45.5347 33.0381 45.9309 32.9543 46.3804 32.9543C46.5328 32.9543 46.6966 32.9695 46.8719 33C47.0471 33.0305 47.2223 33.0838 47.3976 33.16C47.5728 33.2286 47.7366 33.3238 47.889 33.4457C48.049 33.56 48.1823 33.7048 48.289 33.88H48.3119V30.84H49.2833V39ZM53.5358 30.84H54.5072V33.8914H54.5301C54.6901 33.5638 54.9415 33.3276 55.2844 33.1829C55.6272 33.0305 56.0044 32.9543 56.4158 32.9543C56.8729 32.9543 57.2691 33.0381 57.6044 33.2057C57.9472 33.3733 58.2291 33.6019 58.4501 33.8914C58.6787 34.1733 58.8501 34.501 58.9644 34.8743C59.0787 35.2476 59.1358 35.6438 59.1358 36.0629C59.1358 36.4819 59.0787 36.8781 58.9644 37.2514C58.8577 37.6248 58.6901 37.9524 58.4615 38.2343C58.2406 38.5086 57.9587 38.7257 57.6158 38.8857C57.2806 39.0457 56.8882 39.1257 56.4387 39.1257C56.2939 39.1257 56.1301 39.1105 55.9472 39.08C55.772 39.0495 55.5968 39 55.4215 38.9314C55.2463 38.8629 55.0787 38.7714 54.9187 38.6571C54.7663 38.5352 54.6368 38.3867 54.5301 38.2114H54.5072V39H53.5358V30.84ZM58.1072 35.9943C58.1072 35.72 58.0691 35.4533 57.9929 35.1943C57.9244 34.9276 57.8139 34.6914 57.6615 34.4857C57.5168 34.28 57.3263 34.1162 57.0901 33.9943C56.8615 33.8724 56.591 33.8114 56.2787 33.8114C55.951 33.8114 55.6729 33.8762 55.4444 34.0057C55.2158 34.1352 55.0291 34.3067 54.8844 34.52C54.7396 34.7257 54.6329 34.9619 54.5644 35.2286C54.5034 35.4952 54.4729 35.7657 54.4729 36.04C54.4729 36.3295 54.5072 36.6114 54.5758 36.8857C54.6444 37.1524 54.751 37.3886 54.8958 37.5943C55.0482 37.8 55.2425 37.9676 55.4787 38.0971C55.7149 38.219 56.0006 38.28 56.3358 38.28C56.671 38.28 56.9491 38.2152 57.1701 38.0857C57.3987 37.9562 57.5815 37.7848 57.7187 37.5714C57.8558 37.3581 57.9549 37.1143 58.0158 36.84C58.0768 36.5657 58.1072 36.2838 58.1072 35.9943ZM62.3675 39.7886C62.2532 40.0781 62.1389 40.3219 62.0246 40.52C61.918 40.7181 61.7961 40.8781 61.6589 41C61.5294 41.1295 61.3808 41.221 61.2132 41.2743C61.0532 41.3352 60.8665 41.3657 60.6532 41.3657C60.5389 41.3657 60.4246 41.3581 60.3104 41.3429C60.1961 41.3276 60.0856 41.301 59.9789 41.2629V40.3714C60.0627 40.4095 60.158 40.44 60.2646 40.4629C60.3789 40.4933 60.4742 40.5086 60.5504 40.5086C60.7484 40.5086 60.9123 40.459 61.0418 40.36C61.1789 40.2686 61.2818 40.1352 61.3504 39.96L61.7504 38.9657L59.4075 33.0914H60.5046L62.2304 37.9257H62.2532L63.9104 33.0914H64.9389L62.3675 39.7886ZM73.3197 35.2857V33.3543C73.3197 32.6914 73.3083 32.4171 73.274 32.1086H75.0454C75.0226 32.3371 75.0112 32.5086 74.9997 32.8857H77.2169C77.8569 32.8857 78.234 32.8629 78.5083 32.8286V34.52C78.1197 34.4857 77.6969 34.4629 77.274 34.4629H74.9997V35.2857H76.9883C77.5026 35.2857 77.754 35.2743 78.0397 35.24C77.994 35.6629 77.9826 35.9943 77.9826 36.52V38.4629C77.9826 39.2057 78.0054 39.6171 78.0512 40.0286H76.234V39.5829H72.6912V40.0171H70.8969C70.9426 39.6857 70.9654 39.1943 70.9654 38.5657V36.2686C70.9654 35.8343 70.954 35.5257 70.9312 35.24C71.2283 35.2743 71.4797 35.2857 71.9712 35.2857H73.3197ZM72.6912 36.8857V38.0057H76.234V36.8857H72.6912ZM72.8054 30.2229V29.8571C72.8054 29.6057 72.794 29.4457 72.7597 29.2629H74.6454C74.6112 29.4343 74.5997 29.5943 74.5997 29.88V30.2229H77.1026C77.8226 30.2229 78.3597 30.2 78.714 30.1543V31.9143C78.2569 31.88 77.6397 31.8571 77.1369 31.8571H70.6912C70.6912 32.0743 70.6912 32.2457 70.6912 32.36C70.6912 36.3257 70.3254 38.3943 69.3426 40.0629C68.874 39.4229 68.5197 39.0571 67.9369 38.6343C68.714 37.24 68.9312 35.7429 68.9312 31.9371C68.9312 31.08 68.9197 30.5657 68.8969 30.1657C69.3426 30.2 69.834 30.2229 70.4054 30.2229H72.8054ZM81.2512 33.7886H80.714C80.3712 33.7886 80.2226 33.8 80.0397 33.8114V32.7714C79.9026 32.8743 79.8569 32.9086 79.6854 33.0229C79.4683 32.1657 79.3426 31.8114 79.1026 31.2857C79.914 30.8286 80.5997 30.1543 81.1026 29.32H82.794C83.1369 29.7657 83.5369 30.1429 84.154 30.5543V30.1771C84.4854 30.2229 84.7826 30.2343 85.3312 30.2343H86.2683V30.1429C86.2683 29.72 86.2569 29.5029 86.2112 29.2629H87.7654C87.7197 29.5029 87.7083 29.7086 87.7083 30.1429V30.2343H88.3026C88.2112 30.0629 88.2112 30.0629 87.9026 29.5371L88.9997 29.1257C89.2969 29.5486 89.4912 29.8571 89.674 30.2229C89.7997 30.2114 89.8454 30.2 89.994 30.1886V31.8C89.6854 31.7657 89.5026 31.7543 89.0683 31.7543H87.7083V32.2229H88.8512C89.4226 32.2229 89.6054 32.2229 89.834 32.2C89.8112 32.5086 89.7997 32.7371 89.7997 33.4343V38.8629C89.7997 39.6514 89.434 39.9257 88.4054 39.9257C88.3712 39.9257 88.2569 39.9257 88.0512 39.9143C88.0283 39.16 87.9712 38.8857 87.754 38.4171C87.9712 38.44 88.0512 38.44 88.1197 38.44C88.314 38.44 88.3483 38.4057 88.3483 38.1886V37.5714H87.7083V38.76C87.7083 39.3429 87.7197 39.5714 87.7426 39.8686H86.234C86.2569 39.5943 86.2683 39.3314 86.2683 38.7943V37.5714H85.6854V38.68C85.6854 39.4229 85.6969 39.6514 85.7197 40.0057H84.1997C84.2454 39.6057 84.2569 39.3086 84.2569 38.68V33.4229C84.2569 32.7029 84.2569 32.5086 84.2226 32.2C84.5197 32.2229 84.7254 32.2229 85.4226 32.2229H86.2683V31.7543H85.3312C84.8854 31.7543 84.5312 31.7657 84.2454 31.7886L83.9254 32.4171V33.8114C83.754 33.7886 83.6397 33.7886 83.2854 33.7886H82.794V34.2571H83.0683C83.5254 34.2571 83.7426 34.2457 83.9826 34.2229V35.7314C83.7197 35.6971 83.6397 35.6971 83.0683 35.6971H80.314C79.914 35.6971 79.6626 35.7086 79.3769 35.7429V34.2114C79.6397 34.2457 79.8912 34.2571 80.314 34.2571H81.2512V33.7886ZM80.714 32.4286H81.2512C81.2512 31.9143 81.2397 31.8229 81.2283 31.6514C80.9312 31.9829 80.7483 32.1657 80.4512 32.4286C80.5426 32.4286 80.5769 32.4286 80.714 32.4286ZM82.794 32.4286H83.274C83.6054 32.4286 83.7312 32.4286 83.8683 32.4057C83.3083 32.0286 83.1712 31.9257 82.8283 31.6171C82.8054 31.8 82.8054 31.9257 82.794 32.4286ZM81.3654 31.4914H82.6912C82.394 31.2057 82.2569 31.0343 81.9826 30.68C81.7312 31.0457 81.6169 31.1943 81.3654 31.4914ZM86.2683 36.2V35.6171H85.6854V36.2H86.2683ZM87.7083 36.2H88.3483V35.6171H87.7083V36.2ZM87.7083 33.6743V34.2457H88.3483V33.6743H87.7083ZM86.2683 33.6743H85.6854V34.2457H86.2683V33.6743ZM83.9026 39.9029H82.2683V39.5829H81.4912V40.0057H79.754C79.7883 39.7314 79.7997 39.5029 79.7997 39.0571V36.9543C79.7997 36.5771 79.7883 36.3371 79.754 36.0514C79.994 36.0743 80.2912 36.0857 80.714 36.0857H83.0226C83.4569 36.0857 83.674 36.0743 83.8912 36.0514C83.8797 36.2457 83.8683 36.4286 83.8683 36.8286V39.16C83.8683 39.5486 83.8797 39.6971 83.9026 39.9029ZM81.4797 37.4457V38.1886H82.2683V37.4457H81.4797ZM91.9483 29.9829H94.9083C94.9083 29.6743 94.8969 29.5143 94.8512 29.2743H96.7712C96.7369 29.5029 96.714 29.6971 96.714 29.9257V29.9829H99.9026C100.451 29.9829 100.76 29.9714 101.16 29.9143V31.4914C100.805 31.4457 100.508 31.4343 99.914 31.4343H91.8454C91.2626 31.4343 90.9769 31.4457 90.6226 31.4914V29.9143C91.0226 29.96 91.3654 29.9829 91.9483 29.9829ZM98.4969 38.3257V38.4171C98.7369 38.4286 98.8283 38.4286 98.9083 38.4286C99.114 38.4286 99.1712 38.3829 99.1712 38.2114V36.0057H92.5997V38.68C92.5997 39.3543 92.6112 39.6629 92.6569 40.04H90.8283C90.874 39.72 90.8969 39.24 90.8969 38.68V35.6629C90.8969 35.3086 90.8854 34.9657 90.8512 34.6229C91.2512 34.6571 91.594 34.6686 92.1083 34.6686H99.7654C100.314 34.6686 100.611 34.6571 100.92 34.6229C100.885 34.9429 100.874 35.24 100.874 35.6629V38.3257C100.874 39.2286 100.794 39.48 100.463 39.6971C100.188 39.88 99.6854 39.96 98.8969 39.96C98.6797 39.96 98.314 39.9486 98.0054 39.9371C97.994 39.5257 97.9712 39.3771 97.8912 39.0114H97.6854H94.874V39.4457H93.2054C93.2397 39.2057 93.2512 38.9657 93.2512 38.5314V36.9429C93.2512 36.6571 93.2397 36.4743 93.2169 36.28C93.4912 36.3029 93.7312 36.3143 94.1426 36.3143H97.674C98.1312 36.3143 98.314 36.3029 98.5312 36.28C98.5083 36.4857 98.4969 36.6571 98.4969 36.9657V38.3257ZM94.874 37.4229V37.8343H96.9654V37.4229H94.874ZM92.2112 33.6057V32.4857C92.2112 32.1429 92.1997 31.9829 92.1654 31.7086C92.5083 31.7314 92.7712 31.7429 93.3197 31.7429H98.554C99.0454 31.7429 99.3083 31.7314 99.6397 31.7086C99.6054 31.96 99.594 32.1429 99.594 32.4971V33.6057C99.594 33.9829 99.6054 34.1429 99.6397 34.3943C99.2854 34.3714 99.0226 34.36 98.5197 34.36H93.2969C92.8169 34.36 92.5312 34.3714 92.1654 34.3943C92.1997 34.12 92.2112 33.9486 92.2112 33.6057ZM93.8912 32.8286V33.2857H97.8912V32.8286H93.8912ZM105.034 31.5714V30.1086C104.737 31.0686 104.623 31.3543 104.245 32.2V38.7371C104.245 39.24 104.257 39.56 104.314 40.0514H102.497C102.554 39.5029 102.565 39.2629 102.565 38.7486V35.8229C102.565 35.7543 102.577 35.3657 102.588 34.6686C102.303 35.0571 102.12 35.2971 102.04 35.3886C101.903 34.6229 101.743 34.04 101.468 33.2971C102.108 32.6 102.565 31.8457 102.954 30.8057C103.205 30.1314 103.343 29.6514 103.4 29.1714L105.194 29.5829L105.08 29.96C105.377 30.0057 105.731 30.0171 106.337 30.0171H108.108C108.143 29.7086 108.143 29.64 108.165 29.24L109.948 29.3429C109.914 29.5257 109.914 29.5257 109.834 30.0171H111.114C111.708 30.0171 112.017 30.0057 112.428 29.9486V31.56C112.085 31.5371 111.765 31.5257 111.354 31.5257H109.56C109.514 31.7429 109.514 31.7543 109.468 31.9714H110.965C111.525 31.9714 111.674 31.9714 111.914 31.9486C111.868 32.3486 111.857 32.6343 111.857 33.08V36.68C111.857 37.1257 111.868 37.3886 111.903 37.7429C111.48 37.72 111.274 37.72 110.965 37.72H107.72C107.411 37.72 107.263 37.72 106.805 37.7429C106.828 37.3771 106.828 37.2057 106.828 36.8629V32.8286C106.828 32.3486 106.828 32.1657 106.805 31.96C107.023 31.9714 107.171 31.9714 107.697 31.9714H107.765C107.811 31.8229 107.823 31.7429 107.868 31.5257H106.12C105.617 31.5257 105.4 31.5371 105.034 31.5714ZM108.474 33.1257V33.56H110.223V33.1257H108.474ZM108.474 34.6114V35.0571H110.223V34.6114H108.474ZM108.474 36.1086V36.5543H110.223V36.1086H108.474ZM106.36 40.0514H104.668C104.714 39.6514 104.725 39.2971 104.725 38.6114V33.6057C104.725 32.9657 104.714 32.6229 104.668 32.2343H106.417C106.371 32.6114 106.36 32.9543 106.36 33.6171V38.0971H111.034C111.617 38.0971 111.96 38.0857 112.371 38.04V39.6857C111.925 39.64 111.571 39.6171 111.011 39.6171H106.36V40.0514ZM115.697 38.0743H115.274C114.76 38.0743 114.44 38.0857 114.04 38.12C114.074 37.7429 114.085 37.3771 114.085 36.7257V34.2C114.085 33.5714 114.074 33.1714 114.04 32.8286C114.383 32.8514 114.634 32.8629 115.16 32.8629H121.354C121.983 32.8629 122.257 32.8514 122.588 32.8286C122.554 33.1486 122.543 33.5371 122.543 34.2V36.7943C122.543 37.4686 122.554 37.8457 122.588 38.12C122.223 38.0857 121.914 38.0743 121.365 38.0743H120.748C121.64 38.4286 122.474 38.5771 123.823 38.6571C123.491 39.1371 123.343 39.4114 123.034 40.1771C121.96 40.0286 121.343 39.8686 120.531 39.5714C119.823 39.3086 119.411 39.1143 118.817 38.7371L119.583 38.0743H116.783L117.617 38.7371C117.034 39.1371 116.6 39.3543 115.788 39.6514C115.045 39.9143 114.52 40.0514 113.697 40.2C113.457 39.64 113.251 39.2857 112.828 38.7371C114.12 38.6 114.931 38.4171 115.697 38.0743ZM115.788 34.0514V34.3943H120.84V34.0514H115.788ZM115.788 35.2971V35.64H120.84V35.2971H115.788ZM115.788 36.5429V36.8971H120.84V36.5429H115.788ZM123.228 30.6V31.5714C123.228 32.0857 123.24 32.3257 123.285 32.6C123.023 32.5771 122.725 32.5657 122.143 32.5657H114.463C113.891 32.5657 113.56 32.5771 113.32 32.6C113.365 32.28 113.377 32.0743 113.377 31.5714V30.6C113.377 30.0743 113.365 29.8686 113.32 29.5029C113.628 29.5371 113.948 29.5486 114.623 29.5486H121.983C122.657 29.5486 122.988 29.5371 123.285 29.5029C123.24 29.8343 123.228 30.0514 123.228 30.6ZM116.131 31.32V30.8171H115.023V31.32H116.131ZM118.794 31.32V30.8171H117.697V31.32H118.794ZM120.36 31.32H121.514V30.8171H120.36V31.32ZM129.263 38.68V38.7486C129.263 39.4114 129.274 39.7086 129.32 40.04H127.525C127.571 39.6286 127.594 39.2743 127.594 38.7714V37.9714C126.6 38.28 125.64 38.5429 125.263 38.6343C124.988 38.6914 124.783 38.7486 124.6 38.8286L124.177 37.0343C124.44 37.0114 124.52 37 124.908 36.9429V31.1829C124.623 31.1943 124.543 31.1943 124.303 31.2171V29.5257C124.657 29.5714 125.023 29.5943 125.468 29.5943H128.817C129.343 29.5943 129.617 29.5829 129.994 29.5257V30.1429C130.314 30.1771 130.463 30.1771 130.817 30.1771H133.651C133.96 30.1771 134.314 30.1543 134.645 30.1086C134.623 30.4286 134.611 30.5657 134.588 30.9086C134.463 33.08 133.994 34.8857 133.16 36.52C133.788 37.2971 134.188 37.64 135.091 38.2C134.668 38.8057 134.394 39.2971 134.097 39.9943C133.205 39.3543 132.748 38.9314 132.108 38.1543C131.434 38.9886 131.034 39.3543 129.994 40.0971C129.765 39.5371 129.525 39.0914 129.263 38.68ZM129.263 31.1714V38.2457C129.971 37.8229 130.554 37.2857 131.057 36.6229C130.417 35.4457 130.051 34.3486 129.628 32.36L131.08 31.8114H130.771C130.188 31.8114 129.88 31.8229 129.605 31.8686V31.1829C129.514 31.1714 129.4 31.1714 129.263 31.1714ZM132.771 31.8114H131.183C131.48 33.32 131.663 33.9257 132.074 34.8057C132.485 33.72 132.634 33.0686 132.771 31.8114ZM126.6 31.1714V32.0057H127.594V31.1714H126.6ZM126.6 33.4V34.2114H127.594V33.4H126.6ZM126.6 35.6514V36.6343C126.908 36.5657 127.228 36.4857 127.594 36.4057V35.6514H126.6ZM137.88 32.2114V31.1371C137.88 30.5429 137.857 30.0857 137.8 29.72H139.994C139.925 30.0971 139.903 30.4171 139.903 31.0914V32.0057L143.891 31.5714C144.348 31.5257 144.474 31.4914 144.703 31.3886L145.845 32.44C145.663 32.6343 145.663 32.6343 145.468 33.0686C145.137 33.7657 144.691 34.52 144.234 35.0914C143.8 35.6514 143.388 36.04 142.588 36.6571C142.04 36.0629 141.628 35.7314 140.988 35.3657C141.457 35.0914 141.788 34.8629 142.188 34.4857C142.554 34.1543 142.748 33.9029 143.023 33.4343L139.891 33.8V36.2457C139.891 37.08 139.914 37.2629 140.074 37.3886C140.2 37.5143 140.611 37.5714 141.285 37.5714C142.68 37.5714 143.971 37.4 144.965 37.0914L145.034 39.2286C144.954 39.2286 144.885 39.2286 144.851 39.2286C144.565 39.24 144.554 39.2514 144.314 39.2743C143.217 39.3771 141.925 39.4571 141.263 39.4571C140.268 39.4571 139.514 39.3886 139.068 39.2514C138.565 39.0914 138.154 38.6686 138.005 38.1657C137.891 37.7657 137.88 37.6057 137.88 36.5086V34.0171L137.194 34.0971C136.28 34.2 136.131 34.2229 135.685 34.3371L135.491 32.3714C135.708 32.3829 135.857 32.3943 135.914 32.3943C136.074 32.3943 136.611 32.3486 136.988 32.3143L137.88 32.2114ZM147.194 31.7657L148.508 30.1543C149.948 31 150.691 31.5257 151.651 32.3943L150.303 34.1771C149.308 33.1371 148.337 32.3829 147.194 31.7657ZM147.903 39.4457L147.308 37.2514C148.474 37.16 149.674 36.8743 150.748 36.4286C152.188 35.8343 153.217 34.9771 154.097 33.6057C154.577 32.8743 154.885 32.2457 155.217 31.3657C155.777 32.04 156.04 32.2686 156.897 32.8971C155.857 35.1486 154.771 36.4971 153.171 37.5257C151.937 38.3257 150.851 38.7486 148.725 39.24C148.28 39.3429 148.211 39.3543 147.903 39.4457ZM161.388 29.2857L163.434 29.6857C163.423 29.7086 163.263 30.0286 162.943 30.68L166.017 30.6457C166.348 30.6457 166.497 30.6114 166.714 30.4971L167.731 31.5029C167.594 31.6514 167.56 31.72 167.468 31.9943C166.794 34.0286 166.188 35.2629 165.343 36.4057C164.611 37.3886 163.674 38.2571 162.565 38.9886C161.948 39.3886 161.48 39.64 160.6 40.04C160.177 39.2971 159.903 38.9429 159.263 38.3257C161 37.7086 162.108 37.0343 163.137 35.9829C162.428 35.4 161.868 35.0343 161.011 34.5657L162.211 33.1257C163.228 33.6743 163.594 33.9029 164.314 34.4286C164.783 33.7086 165.057 33.0914 165.297 32.3371L162.131 32.36C161.468 33.5029 160.68 34.44 159.525 35.4571C158.977 34.8629 158.623 34.5771 157.88 34.1657C159.228 33.1029 160.051 32.1543 160.725 30.8857C161.045 30.3029 161.24 29.8114 161.388 29.2857ZM169.194 35.7429V33.5371C169.731 33.6171 170.348 33.64 171.537 33.64H177C178.143 33.64 178.577 33.6171 179.343 33.5371V35.7429C178.794 35.6857 178.291 35.6743 176.988 35.6743H171.548C170.268 35.6743 169.891 35.6857 169.194 35.7429Z" fill="#3B5998"/>
<g clip-path="url(#clip0_424_15903)">
<path d="M155.63 10.1508V19.2208H162.59V21.0208H146.88V19.2208H153.68V10.1508H147.83V8.30078H161.62V10.1508H155.63Z" fill="#4B4B4B"/>
<path d="M126.27 4.17969H144.04C143.51 11.5397 141.4 19.3597 129.3 21.9197L128.44 19.9797C137.81 18.0797 140.89 13.2497 141.65 6.23969H126.27V4.17969Z" fill="#4B4B4B"/>
<path d="M113.79 14.8309L112.12 15.2509C111.79 13.2509 111.18 11.6909 110.45 10.1709L112.01 9.73094C113.01 11.6509 113.51 13.6409 113.78 14.8309H113.79ZM118.35 13.8909L116.69 14.2909C116.4 12.5809 115.98 10.9009 115.31 9.31094L116.85 8.96094C117.45 10.3309 118.08 12.5409 118.35 13.8909ZM113.17 22.2609L112 20.8409C118.46 19.5109 121.37 16.6809 122.56 9.20094L124.37 9.57094C123 16.6909 120.33 20.5409 113.17 22.2509V22.2609Z" fill="#4B4B4B"/>
<path d="M103.84 19.3394H107.9V20.9894H93.1401V19.3394H102.01C102.72 15.8994 102.93 13.7594 103.07 11.2994H95.1601V9.60938H104.95C104.83 13.1694 104.39 16.6694 103.85 19.3294L103.84 19.3394Z" fill="#4B4B4B"/>
<path d="M75.2599 3.3307V10.5007C79.3799 9.5507 82.5699 8.4607 86.0399 6.6807L86.9899 8.6207C81.9199 10.9307 77.6899 12.0007 75.2599 12.5107V17.6207C75.2599 19.2907 75.6799 19.4707 78.3099 19.4707H84.2599C86.1099 19.4707 87.9599 19.3807 89.4399 19.1007L89.5599 21.1807C88.1499 21.4107 85.9499 21.4807 84.4899 21.4807H78.0099C74.5599 21.4807 73.1299 20.9007 73.1299 17.9607V3.3307H75.2599ZM85.3199 2.6407L86.7999 1.8107C87.8399 3.2707 88.4199 4.4507 89.1599 6.1607L87.5899 7.0907C86.8999 5.2607 86.3599 4.2407 85.3199 2.6507V2.6407ZM88.8599 1.5507L90.3399 0.720703C91.3599 2.1107 92.0099 3.4507 92.6799 5.0907L91.1099 5.9907C90.4199 4.1407 90.0199 3.3107 88.8699 1.5507H88.8599Z" fill="#4B4B4B"/>
<path d="M67.0199 8.93016L67.4799 12.0502C65.3499 12.4902 64.0299 12.5802 62.2099 12.7402C62.6999 13.6002 63.1599 14.3402 64.0599 15.3102L60.7699 17.3002C59.3799 15.8402 58.6199 13.9902 58.1599 12.8802H48.1899V9.85016H57.1699C56.9799 9.20016 56.8699 8.72016 56.7299 8.05016H48.9999V4.93016H56.2399C56.1199 3.84016 56.1199 3.52016 56.0499 2.50016L59.8699 2.41016C59.8899 3.15016 59.9199 3.47016 60.0099 4.82016C63.0599 4.63016 64.6099 4.29016 65.3299 4.10016L65.6999 7.29016C64.1699 7.61016 62.0899 7.82016 60.4899 7.91016C60.6799 8.74016 60.7699 9.14016 60.9499 9.76016C64.1199 9.57016 65.8999 9.18016 67.0099 8.93016H67.0199ZM51.5499 14.3202L54.5299 15.6202C53.9499 16.3102 53.6999 16.8002 53.6999 17.2602C53.6999 18.5602 55.5999 18.9002 58.8799 18.9002C61.7499 18.9002 63.7599 18.7402 65.0799 18.6202L65.2399 22.1802C64.1299 22.2702 63.0899 22.3402 60.0299 22.3402C55.3299 22.3402 53.7799 21.9702 52.4899 21.3902C50.8699 20.6502 49.9499 19.1702 49.9499 17.8302C49.9499 16.6002 50.5099 15.5202 51.5499 14.3102V14.3202Z" fill="#4B4B4B"/>
<path d="M32.1802 23.4991L30.0302 20.9991C30.0302 23.3391 28.7802 23.4291 27.7902 23.4291H24.6702L24.0702 19.8691H26.0602C26.5002 19.8691 26.6202 19.7991 26.6202 19.2491V16.0591C25.6002 16.3391 24.9102 16.4991 24.1002 16.7091L23.6802 13.2391C24.4202 13.0991 25.2802 12.9391 26.6202 12.6191V8.52906H23.9102V5.28906H26.6202V1.54906H30.0402V5.26906H31.5902V4.17906H34.2702C34.2902 3.43906 34.2702 2.78906 34.2502 1.53906H37.7902C37.7902 2.43906 37.7902 2.87906 37.7702 4.17906H45.8002V7.48906H37.6302C37.5602 8.50906 37.5102 8.94906 37.4902 9.26906H44.7802V12.3891C44.5502 13.5491 44.1102 15.6091 42.4202 18.1291C43.9502 19.4291 45.2202 20.0291 46.1402 20.4191L44.3602 23.5691C42.8602 22.7391 41.5102 21.8991 40.2402 20.7191C38.3702 22.4791 36.7702 23.1491 35.8702 23.5191L34.0902 20.7891C33.2302 22.1991 32.7502 22.8291 32.1902 23.4991H32.1802ZM34.1902 7.48906H31.8802V8.50906H30.0302V11.6791C30.8902 11.4291 31.2602 11.3091 32.0402 11.0591L32.1302 14.2791C31.5702 14.5091 31.1402 14.6691 30.0202 15.0691V20.4391C33.5602 15.6991 33.9102 11.9991 34.1802 7.50906L34.1902 7.48906ZM41.5502 12.3991H37.0802C37.0602 12.5591 36.9602 13.1591 36.8502 13.8091L38.8602 12.9491C39.1102 13.6891 39.3902 14.4991 40.1602 15.6591C41.1302 14.1791 41.3602 13.1591 41.5502 12.3991ZM36.6002 14.8791C36.3002 16.0091 35.7202 17.9091 34.3302 20.4091C34.9502 20.1791 36.5002 19.5791 38.0802 18.1391C37.2502 16.8191 36.8502 15.6891 36.6002 14.8791Z" fill="#4B4B4B"/>
<path d="M2.8 23.4304L0 20.6304C0.79 19.2004 1.9 16.9304 1.9 10.2704V2.15039H21.4V9.14039H15.04V10.4804H22.24V13.4604H15.04V14.9604H20.82V23.1304H5.95V14.9604H11.6V13.4604H5.26C5.07 19.5004 3.36 22.4404 2.81 23.4304H2.8ZM5.27 9.14039V10.4804H11.59V9.14039H5.27ZM17.98 6.48039V5.02039H5.3V6.48039H17.98ZM17.4 20.2404V17.7004H9.33V20.2404H17.4Z" fill="#4B4B4B"/>
<path d="M190.23 17.38V10.5C190.23 9.99997 190.54 9.54997 191.01 9.37997C191.94 9.05997 192.61 8.16997 192.61 7.12997V0.949971C192.61 0.389971 192.13 -0.0500291 191.56 -2.91022e-05C191.06 0.0499709 190.71 0.499971 190.71 0.999971V5.58997C190.71 5.78997 190.55 5.94997 190.35 5.94997C190.15 5.94997 189.99 5.78997 189.99 5.58997V1.00997C189.99 0.509971 189.63 0.0599709 189.14 0.0099709C188.57 -0.0500291 188.09 0.399971 188.09 0.959971V5.59997C188.09 5.79997 187.93 5.95997 187.73 5.95997C187.53 5.95997 187.37 5.79997 187.37 5.59997V1.00997C187.37 0.509971 187.01 0.0599709 186.52 0.0099709C185.95 -0.0500291 185.47 0.399971 185.47 0.959971V7.14997H175.95C175.75 7.14997 175.57 7.19997 175.41 7.28997C175.75 6.55997 175.95 5.69997 175.95 4.76997C175.95 2.12997 174.35 -2.91022e-05 172.37 -2.91022e-05C170.39 -2.91022e-05 168.8 2.12997 168.8 4.75997C168.8 6.56997 169.56 8.14997 170.68 8.94997C170.98 9.16997 171.18 9.49997 171.18 9.86997V17.38C169.69 18.18 168.8 19.16 168.8 20.23C168.8 22.86 174.13 24.99 180.7 24.99C187.27 24.99 192.6 22.86 192.6 20.23C192.6 19.16 191.71 18.17 190.22 17.38H190.23ZM187.07 9.38997C187.54 9.54997 187.85 10.01 187.85 10.51V16.43C187.47 16.32 187.07 16.21 186.66 16.11V9.18997C186.79 9.26997 186.92 9.32997 187.07 9.37997V9.38997ZM183.98 8.32997H185.47V11.16C185.47 11.61 185.07 11.97 184.6 11.89C184.23 11.83 183.98 11.48 183.98 11.11V8.32997ZM181.3 8.32997H182.79V11.16C182.79 11.61 182.39 11.97 181.92 11.89C181.55 11.83 181.3 11.49 181.3 11.11V8.31997V8.32997ZM178.62 8.32997H180.11V11.16C180.11 11.61 179.71 11.97 179.24 11.89C178.87 11.83 178.62 11.49 178.62 11.11V8.31997V8.32997ZM175.95 8.32997H177.44V11.16C177.44 11.61 177.04 11.97 176.57 11.89C176.2 11.83 175.95 11.49 175.95 11.12V8.32997ZM175.95 12.93C176.2 13.04 176.46 13.1 176.75 13.09C177.25 13.08 177.7 12.87 178.03 12.55C178.38 12.89 178.85 13.09 179.37 13.09C179.89 13.09 180.36 12.88 180.71 12.55C181.06 12.89 181.53 13.09 182.05 13.09C182.57 13.09 183.04 12.88 183.39 12.55C183.73 12.87 184.18 13.08 184.67 13.09C184.95 13.09 185.22 13.04 185.47 12.93V20.24H183.09V16.67C183.09 15.36 182.02 14.29 180.71 14.29C179.4 14.29 178.33 15.36 178.33 16.67V20.24H175.95V12.93ZM173.56 9.87997C173.56 9.50997 173.76 9.16997 174.06 8.95997C174.31 8.77997 174.54 8.54997 174.75 8.29997C174.75 8.30997 174.75 8.32997 174.75 8.33997V16.12C174.34 16.22 173.94 16.32 173.56 16.44V9.87997ZM180.71 23.81C174.17 23.81 170 21.69 170 20.24C170 19.78 170.42 19.26 171.19 18.75V20.17C171.19 20.81 171.67 21.39 172.32 21.42C173.01 21.46 173.57 20.91 173.57 20.23V17.67C173.94 17.55 174.34 17.43 174.76 17.33V20.23C174.76 20.89 175.29 21.42 175.95 21.42H185.47C186.13 21.42 186.66 20.89 186.66 20.23V17.33C187.08 17.43 187.48 17.55 187.85 17.67V20.17C187.85 20.81 188.33 21.39 188.98 21.43C189.67 21.47 190.23 20.92 190.23 20.24V18.75C191 19.25 191.42 19.78 191.42 20.24C191.42 21.7 187.25 23.81 180.71 23.81Z" fill="#4B4B4B"/>
</g>
<defs>
<clipPath id="clip0_424_15903">
<rect width="192.61" height="25" fill="white"/>
</clipPath>
</defs>
</svg>
